<?xml version="1.0" encoding="utf-8"?>
<!-- Generator: Adobe Illustrator 23.1.0, SVG Export Plug-In . SVG Version: 6.00 Build 0)  -->
<svg version="1.1" id="Layer_1" xmlns="http://www.w3.org/2000/svg" xmlns:xlink="http://www.w3.org/1999/xlink" x="0px" y="0px"
	 viewBox="0 0 50 50" style="enable-background:new 0 0 50 50;" xml:space="preserve">
<style type="text/css">
	.st0{fill:#FFFFFF;}
</style>
<g>
	<path class="st0" d="M22.1,25.6H10.6c-0.4,0-0.6-0.3-0.6-0.6s0.3-0.6,0.6-0.6h11.5c0.4,0,0.6,0.3,0.6,0.6S22.5,25.6,22.1,25.6z"/>
	<path class="st0" d="M22.1,22H4.6c-0.4,0-0.7-0.3-0.7-0.6s0.3-0.6,0.7-0.6h17.5c0.4,0,0.6,0.3,0.6,0.6S22.5,22,22.1,22z"/>
	<path class="st0" d="M22.1,29.2h-7c-0.4,0-0.6-0.3-0.6-0.6s0.3-0.6,0.6-0.6h7c0.4,0,0.6,0.3,0.6,0.6S22.5,29.2,22.1,29.2z"/>
	<path class="st0" d="M31,23.2c-0.6-0.6-1.1-1.1-1.6-1.6c-0.2-0.2-0.5-0.5-0.7-0.7c-0.2-0.3-0.3-0.6-0.1-1c0.2-0.3,0.4-0.5,0.8-0.6
		c0.9-0.1,1,0.1,1.7,0.6c1.5,1,3,1.9,4.6,2.8c0.2,0.1,0.4,0.2,0.6,0.2c1.8,0,3.6,0.1,5.4,0.1c0.9,0,1.5,0.3,2,1
		c0.1,0.2,0.3,0.3,0.5,0.3c0.5,0.3,0.9,0.6,1,1.2c0.1,0.8-0.4,1.4-1.2,1.6c-0.2,0.1-0.5,0.1-0.7,0.1c-2.3,0-4.7,0-7,0
		c-0.3,0-0.5,0.1-0.7,0.2c-1.6,1-3.2,1.9-4.8,2.9c-0.7,0.4-0.9,0.5-1.7,0.4c-0.6-0.1-0.9-0.9-0.5-1.4c0.1-0.2,0.3-0.4,0.5-0.5
		c0.5-0.6,1.1-1.1,1.6-1.7c0.1-0.1,0.1-0.1,0.2-0.2c-0.4-0.1-1.3-0.2-1.6-0.3c-0.9-0.3-2.1-0.2-2.8,0.4c-0.3,0.3-0.7,0.3-1.1,0.2
		c-0.5-0.1-0.4-0.5-0.2-1c0.2-0.3,0.4-0.6,0.5-1c0.1-0.1,0.1-0.3,0.1-0.4c-0.2-0.8-0.4-1.5-0.5-2.3c-0.2-0.7-0.5-1.1,0.3-1.1
		c0.6,0,1.2,0.2,1.6,0.7c0.3,0.3,0.7,0.6,1,1c0.3,0.3,1.3,0.4,1.7,0.3C30,23.2,30.8,23.2,31,23.2z"/>
</g>
</svg>
