<?xml version="1.0" encoding="utf-8"?>
<!-- Generator: Adobe Illustrator 23.1.0, SVG Export Plug-In . SVG Version: 6.00 Build 0)  -->
<svg version="1.1" id="Layer_1" xmlns="http://www.w3.org/2000/svg" xmlns:xlink="http://www.w3.org/1999/xlink" x="0px" y="0px"
	 viewBox="0 0 800 800" style="enable-background:new 0 0 800 800;" xml:space="preserve">
<style type="text/css">
	.st0{fill:#FFFFFF;}
</style>
<path class="st0" d="M433.2,664.6V465.2c0-10.7,0.8-21.3,3.9-28.9c8.6-21.4,28.1-43.4,60.9-43.4c43,0,60.1,32.8,60.1,80.7v191h118.7
	V459.8c0-109.7-58.6-160.7-136.7-160.7c-63.1,0-91.2,34.7-107,59v1.2h-0.8c0.2-0.4,0.5-0.8,0.8-1.2v-50.6H314.5
	c1.6,33.5,0,357.1,0,357.1H433.2z"/>
<rect x="130.1" y="307.5" class="st0" width="118.7" height="357.1"/>
<path class="st0" d="M188.7,258.8h0.8c41.4,0,67.2-27.4,67.2-61.7c-0.8-35-25.7-61.7-66.4-61.7c-40.6,0-67.2,26.7-67.2,61.7
	C123.1,231.4,148.9,258.8,188.7,258.8z"/>
</svg>
