<?xml version="1.0" encoding="utf-8"?>
<!-- Generator: Adobe Illustrator 23.1.0, SVG Export Plug-In . SVG Version: 6.00 Build 0)  -->
<svg version="1.1" id="Layer_1" xmlns="http://www.w3.org/2000/svg" xmlns:xlink="http://www.w3.org/1999/xlink" x="0px" y="0px"
	 viewBox="0 0 500 500" style="enable-background:new 0 0 500 500;" xml:space="preserve">
<style type="text/css">
	.st0{fill:#92FCFF;}
	.st1{fill:none;stroke:#92FCFF;stroke-miterlimit:10;}
	.st2{enable-background:new    ;}
	.st3{fill:#FFFFFF;}
	.st4{fill:#BBBDBF;}
	.st5{fill:#B5B5B5;}
</style>
<g>
	<rect y="-1" width="500" height="502"/>
</g>
<g>
	<path class="st0" d="M17.3,474.9l0.6-0.7c0.9,0.8,1.7,1.2,2.9,1.2c1.1,0,1.9-0.6,1.9-1.4l0,0c0-0.8-0.4-1.2-2.2-1.6
		c-1.9-0.4-2.8-1-2.8-2.4l0,0c0-1.3,1.2-2.3,2.8-2.3c1.2,0,2.1,0.3,3,1l-0.6,0.7c-0.8-0.6-1.6-0.9-2.4-0.9c-1.1,0-1.8,0.6-1.8,1.4
		l0,0c0,0.8,0.4,1.2,2.3,1.6s2.7,1.1,2.7,2.4l0,0c0,1.4-1.2,2.4-2.9,2.4C19.4,476.2,18.3,475.8,17.3,474.9z"/>
	<path class="st0" d="M24.9,473L24.9,473c0-1.8,1.4-3.3,3.2-3.3c1.2,0,1.9,0.5,2.5,1.1l-0.6,0.6c-0.5-0.5-1-0.9-1.9-0.9
		c-1.3,0-2.2,1.1-2.2,2.4l0,0c0,1.3,1,2.4,2.3,2.4c0.8,0,1.4-0.4,1.9-0.9l0.6,0.6c-0.6,0.7-1.4,1.2-2.5,1.2
		C26.3,476.2,24.9,474.7,24.9,473z"/>
	<path class="st0" d="M32.2,469.9h0.9v1.6c0.5-1,1.4-1.8,2.5-1.7v1h-0.1c-1.4,0-2.5,1-2.5,2.8v2.5h-0.9L32.2,469.9L32.2,469.9z"/>
	<path class="st0" d="M36.4,473L36.4,473c0-1.8,1.4-3.3,3.2-3.3c1.9,0,3.2,1.5,3.2,3.2l0,0c0,1.8-1.4,3.2-3.3,3.2
		C37.7,476.2,36.4,474.8,36.4,473z M41.9,473L41.9,473c0-1.4-1-2.4-2.3-2.4s-2.3,1.1-2.3,2.4l0,0c0,1.3,1,2.4,2.3,2.4
		C41,475.4,41.9,474.3,41.9,473z"/>
	<path class="st0" d="M44.6,467.3h0.9v8.8h-0.9V467.3z"/>
	<path class="st0" d="M47.8,467.3h0.9v8.8h-0.9V467.3z"/>
	<path class="st0" d="M54.8,474.4v-3.7h-0.9v-0.8h0.9V468h0.9v1.9h2v0.8h-2v3.6c0,0.8,0.4,1,1,1c0.3,0,0.6-0.1,0.9-0.2v0.8
		c-0.3,0.2-0.7,0.3-1.1,0.3C55.5,476.2,54.8,475.7,54.8,474.4z"/>
	<path class="st0" d="M58.7,473L58.7,473c0-1.8,1.4-3.3,3.2-3.3c1.9,0,3.2,1.5,3.2,3.2l0,0c0,1.8-1.4,3.2-3.3,3.2
		C60.1,476.2,58.7,474.8,58.7,473z M64.2,473L64.2,473c0-1.4-1-2.4-2.3-2.4s-2.3,1.1-2.3,2.4l0,0c0,1.3,1,2.4,2.3,2.4
		C63.3,475.4,64.2,474.3,64.2,473z"/>
	<path class="st0" d="M73.2,475.4c0.9,0,1.5-0.3,2-0.9l0.6,0.5c-0.6,0.7-1.4,1.2-2.6,1.2c-1.7,0-3.1-1.3-3.1-3.2
		c0-1.8,1.3-3.2,3-3.2c1.8,0,2.9,1.5,2.9,3.3c0,0.1,0,0.2,0,0.3h-5C71.1,474.7,72.1,475.4,73.2,475.4z M75,472.6
		c-0.1-1.1-0.8-2.1-2-2.1c-1.1,0-1.9,0.9-2,2.1H75z"/>
	<path class="st0" d="M79.1,472.9l-2.3-3h1.1l1.8,2.4l1.8-2.4h1l-2.4,3l2.4,3.2h-1.1l-1.9-2.5l-1.9,2.5h-1L79.1,472.9z"/>
	<path class="st0" d="M84.1,469.9H85v1.2c0.5-0.7,1.2-1.4,2.4-1.4c1.5,0,3,1.2,3,3.2l0,0c0,2-1.5,3.2-3,3.2c-1.2,0-1.9-0.6-2.4-1.3
		v3.1h-0.9V469.9z M89.4,473L89.4,473c0-1.5-1-2.4-2.2-2.4s-2.2,1-2.2,2.4l0,0c0,1.4,1.1,2.4,2.2,2.4
		C88.4,475.4,89.4,474.5,89.4,473z"/>
	<path class="st0" d="M92.1,467.3H93v8.8h-0.9V467.3z"/>
	<path class="st0" d="M94.8,473L94.8,473c0-1.8,1.4-3.3,3.2-3.3c1.9,0,3.2,1.5,3.2,3.2l0,0c0,1.8-1.4,3.2-3.3,3.2
		C96.2,476.2,94.8,474.8,94.8,473z M100.3,473L100.3,473c0-1.4-1-2.4-2.3-2.4s-2.3,1.1-2.3,2.4l0,0c0,1.3,1,2.4,2.3,2.4
		C99.4,475.4,100.3,474.3,100.3,473z"/>
	<path class="st0" d="M103,469.9h0.9v1.6c0.5-1,1.4-1.8,2.5-1.7v1h-0.1c-1.4,0-2.5,1-2.5,2.8v2.5H103V469.9z"/>
	<path class="st0" d="M110.3,475.4c0.9,0,1.5-0.3,2-0.9l0.6,0.5c-0.6,0.7-1.4,1.2-2.6,1.2c-1.7,0-3.1-1.3-3.1-3.2
		c0-1.8,1.3-3.2,3-3.2c1.8,0,2.9,1.5,2.9,3.3c0,0.1,0,0.2,0,0.3h-4.9C108.2,474.7,109.2,475.4,110.3,475.4z M112.1,472.6
		c-0.1-1.1-0.8-2.1-2-2.1c-1.1,0-1.9,0.9-2,2.1H112.1z"/>
</g>
<g>
	<g>
		<line class="st1" x1="448.4" y1="472.2" x2="119.5" y2="472.2"/>
		<g>
			<polygon class="st0" points="445.1,468.1 444.4,468.8 448,472.2 444.4,475.5 445.1,476.3 449.5,472.2 			"/>
		</g>
	</g>
</g>
<g class="st2">
	<path class="st3" d="M16.7,193.9l3.1-3.5c6.9,6.4,13.3,9.4,22.6,9.4c9.4,0,15.9-5.3,15.9-12.5v-0.2c0-6.7-3.5-10.5-17.8-13.4
		c-15.1-3.1-21.2-8.2-21.2-17.7v-0.2c0-9.4,8.5-16.6,20.2-16.6c9.2,0,15.2,2.5,21.6,7.6l-3,3.7c-5.9-5.1-11.9-7.1-18.8-7.1
		c-9.3,0-15.4,5.3-15.4,11.9v0.2c0,6.7,3.4,10.7,18.4,13.8c14.6,3,20.7,8.2,20.7,17.4v0.2C62.9,197,54.2,204,42,204
		C32,204,24.2,200.7,16.7,193.9z"/>
	<path class="st3" d="M100.9,139.6h4.5l29.3,63.4h-5.1l-8-17.6H84.4l-8,17.6h-4.9L100.9,139.6z M119.6,181.2L103,144.8l-16.6,36.4
		L119.6,181.2L119.6,181.2z"/>
	<path class="st3" d="M148.1,140.1h26c7.1,0,12.9,2.1,16.4,5.6c2.6,2.6,4,5.9,4,9.9v0.2c0,8.5-5.6,12.9-10.7,14.9
		c7.6,2,14.2,6.3,14.2,15v0.2c0,10.5-9,17.2-22.6,17.2H148v-63H148.1z M173.5,169.2c9.4,0,16.2-4.6,16.2-13V156
		c0-6.9-5.7-11.6-15.7-11.6h-21.2v24.7h20.7V169.2z M175.6,198.8c10.8,0,17.6-4.9,17.6-12.9v-0.2c0-7.7-6.7-12.2-19.2-12.2h-21.3
		v25.3L175.6,198.8L175.6,198.8z"/>
	<path class="st3" d="M237,139.6h4.5l29.3,63.4h-5.1l-8-17.6h-37.2l-8,17.6h-4.9L237,139.6z M255.7,181.2l-16.6-36.4l-16.6,36.4
		L255.7,181.2L255.7,181.2z"/>
	<path class="st3" d="M284.1,140.1h4.4l43.5,54.8v-54.8h4.5v63H333l-44.4-56v56h-4.5V140.1z"/>
	<path class="st3" d="M352.4,171.8v-0.2c0-17,12.3-32.6,31.1-32.6c10.3,0,16.7,3.1,23,8.3l-3.1,3.5c-5-4.3-10.7-7.6-20.2-7.6
		c-15.3,0-26,13-26,28.2v0.2c0,16.3,10.2,28.4,27,28.4c8,0,15.5-3.3,20.1-7.2v-18.1h-21.1v-4.3h25.6v24.3c-5.7,5-14.5,9.5-24.7,9.5
		C364.2,204.2,352.4,189.5,352.4,171.8z"/>
</g>
<g class="st2">
	<path class="st3" d="M20.3,339.2h4.2l24.1,37.3l24.1-37.3h4.2v63h-4.5v-54.7l-23.7,36.3h-0.3l-23.7-36.3v54.7h-4.3L20.3,339.2
		L20.3,339.2z"/>
	<path class="st3" d="M94.7,339.2h42.7v4.3H99.1v24.7h34.4v4.3H99.1v25.3h38.7v4.3H94.7V339.2z"/>
	<path class="st3" d="M152.1,339.2h25.2c7.4,0,13.3,2.4,16.9,6.2c2.8,3,4.5,7.2,4.5,11.7v0.2c0,10.5-7.5,16.6-17.6,18l19.8,26.9
		h-5.7l-19.1-26.1h-19.6v26.1H152v-63H152.1z M176.8,371.9c10,0,17.5-5.3,17.5-14.4v-0.2c0-8.5-6.3-13.8-17.2-13.8h-20.5v28.3h20.2
		V371.9z"/>
	<path class="st3" d="M236.9,338.8h4.3l27.9,63.4h-4.9l-7.6-17.6h-35.4l-7.6,17.6H209L236.9,338.8z M254.7,380.4L238.9,344
		L223,380.4H254.7z"/>
	<path class="st3" d="M278.7,376v-36.8h4.5v36.4c0,14.8,7.6,23.4,20.3,23.4c12.2,0,20-7.7,20-22.9v-36.8h4.5v36.3
		c0,18.1-10,27.7-24.6,27.7C288.9,403.2,278.7,393.7,278.7,376z"/>
	<path class="st3" d="M344.8,339.2h4.5v41.4l38.2-41.4h6.1L367.3,367l27.3,35.2h-5.8l-24.7-31.9l-14.9,15.8v16h-4.5v-62.9H344.8z"/>
	<path class="st3" d="M406.1,339.2h42.7v4.3h-38.2v24.7H445v4.3h-34.4v25.3h38.7v4.3h-43.1v-62.9H406.1z"/>
</g>
<g class="st2">
	<path class="st4" d="M22.9,427.6h0.8l5.1,10.6h-0.9l-1.4-2.9H20l-1.4,2.9h-0.8L22.9,427.6z M26.2,434.5l-2.9-6.1l-2.9,6.1H26.2z"/>
	<path class="st4" d="M35.1,436.6l0.5-0.6c1.2,1.1,2.3,1.6,3.9,1.6c1.6,0,2.8-0.9,2.8-2.1l0,0c0-1.1-0.6-1.8-3.1-2.2
		c-2.6-0.5-3.7-1.4-3.7-3l0,0c0-1.6,1.5-2.8,3.5-2.8c1.6,0,2.6,0.4,3.8,1.3l-0.5,0.6c-1-0.9-2.1-1.2-3.3-1.2c-1.6,0-2.7,0.9-2.7,2
		l0,0c0,1.1,0.6,1.8,3.2,2.3c2.5,0.5,3.6,1.4,3.6,2.9l0,0c0,1.7-1.5,2.9-3.6,2.9C37.8,438.3,36.4,437.8,35.1,436.6z"/>
	<path class="st4" d="M45.3,433L45.3,433c0-3,2.3-5.5,5.5-5.5c2,0,3.1,0.7,4.3,1.7l-0.6,0.6c-1-0.9-2-1.5-3.7-1.5
		c-2.6,0-4.6,2.1-4.6,4.7l0,0c0,2.7,2,4.7,4.6,4.7c1.6,0,2.7-0.6,3.8-1.6l0.5,0.5c-1.2,1.1-2.4,1.8-4.3,1.8
		C47.6,438.4,45.3,436,45.3,433z"/>
	<path class="st4" d="M61.5,427.6h0.8l5.1,10.6h-0.9l-1.4-2.9h-6.5l-1.4,2.9h-0.8L61.5,427.6z M64.8,434.5l-2.9-6.1l-2.9,6.1H64.8z"
		/>
	<path class="st4" d="M69.7,427.7h0.8v9.8H77v0.7h-7.2v-10.5H69.7z"/>
	<path class="st4" d="M79.4,427.7h7.8v0.7h-7v4.1h6.3v0.7h-6.3v4.2h7.1v0.7h-7.9V427.7z"/>
	<path class="st4" d="M94.6,427.7h0.8l4.4,6.2l4.4-6.2h0.8v10.5h-0.8v-9.1l-4.3,6h-0.1l-4.3-6v9.1h-0.8L94.6,427.7L94.6,427.7z"/>
	<path class="st4" d="M107.7,433L107.7,433c0-2.9,2.2-5.5,5.5-5.5s5.5,2.5,5.5,5.4l0,0c0,2.9-2.2,5.4-5.5,5.4
		C109.8,438.4,107.7,435.8,107.7,433z M117.8,433L117.8,433c0-2.6-2-4.8-4.7-4.8s-4.6,2.1-4.6,4.7l0,0c0,2.6,2,4.7,4.7,4.7
		C115.9,437.7,117.8,435.5,117.8,433z"/>
	<path class="st4" d="M121.4,427.7h3.6c3.4,0,5.8,2.3,5.8,5.2l0,0c0,3-2.4,5.3-5.8,5.3h-3.6V427.7z M125.1,437.5c3,0,5-2,5-4.5l0,0
		c0-2.5-1.9-4.5-5-4.5h-2.8v9.1h2.8V437.5z"/>
	<path class="st4" d="M133.7,427.7h7.8v0.7h-7v4.1h6.3v0.7h-6.3v4.2h7.1v0.7h-7.9L133.7,427.7L133.7,427.7z"/>
	<path class="st4" d="M144.1,427.7h0.8v9.8h6.4v0.7h-7.2V427.7z"/>
	<path class="st4" d="M158,433L158,433c0-2.9,2.2-5.5,5.5-5.5s5.5,2.5,5.5,5.4l0,0c0,2.9-2.2,5.4-5.5,5.4
		C160.2,438.4,158,435.8,158,433z M168.2,433L168.2,433c0-2.6-2-4.8-4.7-4.8s-4.6,2.1-4.6,4.7l0,0c0,2.6,2,4.7,4.7,4.7
		C166.3,437.7,168.2,435.5,168.2,433z"/>
	<path class="st4" d="M171.8,427.7h7.7v0.7h-6.9v4.3h6.2v0.7h-6.2v4.8h-0.8V427.7z"/>
	<path class="st4" d="M189.8,428.4H186v-0.7h8.4v0.7h-3.8v9.8h-0.8L189.8,428.4L189.8,428.4z"/>
	<path class="st4" d="M196.9,427.7h0.8v4.9h7v-4.9h0.8v10.5h-0.8v-4.9h-7v4.9h-0.8V427.7z"/>
	<path class="st4" d="M208.8,427.7h7.8v0.7h-7v4.1h6.3v0.7h-6.3v4.2h7.1v0.7h-7.9L208.8,427.7L208.8,427.7z"/>
	<path class="st4" d="M224.1,427.7h0.8v10.5h-0.8V427.7z"/>
	<path class="st4" d="M228.2,427.7h0.8l7.6,9.1v-9.1h0.8v10.5h-0.6l-7.7-9.3v9.3h-0.8v-10.5H228.2z"/>
	<path class="st4" d="M240.6,427.7h3.6c3.4,0,5.8,2.3,5.8,5.2l0,0c0,3-2.4,5.3-5.8,5.3h-3.6V427.7z M244.2,437.5c3,0,5-2,5-4.5l0,0
		c0-2.5-1.9-4.5-5-4.5h-2.8v9.1h2.8V437.5z"/>
	<path class="st4" d="M252.3,433L252.3,433c0-2.9,2.2-5.5,5.5-5.5s5.5,2.5,5.5,5.4l0,0c0,2.9-2.2,5.4-5.5,5.4S252.3,435.8,252.3,433
		z M262.5,433L262.5,433c0-2.6-2-4.8-4.7-4.8s-4.6,2.1-4.6,4.7l0,0c0,2.6,2,4.7,4.7,4.7S262.5,435.5,262.5,433z"/>
	<path class="st4" d="M266.1,427.7h0.8l7.6,9.1v-9.1h0.8v10.5h-0.6l-7.7-9.3v9.3h-0.8L266.1,427.7L266.1,427.7z"/>
	<path class="st4" d="M278.5,427.7h7.8v0.7h-7v4.1h6.3v0.7h-6.3v4.2h7.1v0.7h-7.9V427.7z"/>
	<path class="st4" d="M288.3,436.6l0.5-0.6c1.2,1.1,2.3,1.6,3.9,1.6s2.8-0.9,2.8-2.1l0,0c0-1.1-0.6-1.8-3.1-2.2
		c-2.6-0.5-3.7-1.4-3.7-3l0,0c0-1.6,1.5-2.8,3.5-2.8c1.6,0,2.6,0.4,3.8,1.3l-0.5,0.6c-1-0.9-2.1-1.2-3.3-1.2c-1.6,0-2.7,0.9-2.7,2
		l0,0c0,1.1,0.6,1.8,3.2,2.3c2.5,0.5,3.6,1.4,3.6,2.9l0,0c0,1.7-1.5,2.9-3.6,2.9C290.9,438.3,289.6,437.8,288.3,436.6z"/>
	<path class="st4" d="M299.1,427.7h0.8v10.5h-0.8V427.7z"/>
	<path class="st4" d="M307.4,427.6h0.8l5.1,10.6h-0.9l-1.4-2.9h-6.5l-1.4,2.9h-0.8L307.4,427.6z M310.7,434.5l-2.9-6.1l-2.9,6.1
		H310.7z"/>
	<path class="st4" d="M315.6,427.7h0.8l7.6,9.1v-9.1h0.8v10.5h-0.6l-7.7-9.3v9.3h-0.8L315.6,427.7L315.6,427.7z"/>
	<path class="st4" d="M336.8,427.6h0.8l5.1,10.6h-0.9l-1.4-2.9H334l-1.4,2.9h-0.8L336.8,427.6z M340.1,434.5l-2.9-6.1l-2.9,6.1
		H340.1z"/>
	<path class="st4" d="M345,427.7h4.6c1.3,0,2.4,0.4,3.1,1c0.5,0.5,0.8,1.2,0.8,2l0,0c0,1.8-1.4,2.8-3.2,3l3.6,4.5h-1l-3.5-4.3h-3.6
		v4.3H345V427.7z M349.5,433.1c1.8,0,3.2-0.9,3.2-2.4l0,0c0-1.4-1.2-2.3-3.1-2.3h-3.7v4.7L349.5,433.1L349.5,433.1z"/>
	<path class="st4" d="M355.8,433L355.8,433c0-3,2.3-5.5,5.5-5.5c2,0,3.1,0.7,4.3,1.7l-0.6,0.6c-1-0.9-2-1.5-3.7-1.5
		c-2.6,0-4.6,2.1-4.6,4.7l0,0c0,2.7,2,4.7,4.6,4.7c1.6,0,2.7-0.6,3.8-1.6l0.5,0.5c-1.2,1.1-2.4,1.8-4.3,1.8
		C358.1,438.4,355.8,436,355.8,433z"/>
	<path class="st4" d="M367.9,427.7h0.8v4.9h7v-4.9h0.8v10.5h-0.8v-4.9h-7v4.9h-0.8V427.7z"/>
	<path class="st4" d="M379.9,427.7h0.8v10.5h-0.8V427.7z"/>
	<path class="st4" d="M384,427.7h4c2.4,0,4.1,1.2,4.1,3.2l0,0c0,2.2-2,3.3-4.3,3.3h-3v3.9H384V427.7z M387.8,433.5
		c2,0,3.4-1,3.4-2.6l0,0c0-1.7-1.3-2.5-3.3-2.5h-3.1v5.1H387.8z"/>
	<path class="st4" d="M394.5,427.7h7.8v0.7h-7v4.1h6.3v0.7h-6.3v4.2h7.1v0.7h-7.9V427.7z"/>
	<path class="st4" d="M405,427.7h0.8v9.8h6.4v0.7H405V427.7z"/>
	<path class="st4" d="M418.8,427.6h0.8l5.1,10.6h-0.9l-1.4-2.9h-6.5l-1.4,2.9h-0.8L418.8,427.6z M422.1,434.5l-2.9-6.1l-2.9,6.1
		H422.1z"/>
	<path class="st4" d="M425.9,433L425.9,433c0-2.9,2.1-5.5,5.4-5.5c1.8,0,2.9,0.5,4,1.4l-0.5,0.6c-0.9-0.7-1.9-1.3-3.5-1.3
		c-2.7,0-4.5,2.2-4.5,4.7l0,0c0,2.7,1.8,4.7,4.7,4.7c1.4,0,2.7-0.6,3.5-1.2v-3h-3.7v-0.7h4.4v4c-1,0.8-2.5,1.6-4.3,1.6
		C427.9,438.4,425.9,435.9,425.9,433z"/>
	<path class="st4" d="M438.1,433L438.1,433c0-2.9,2.2-5.5,5.5-5.5s5.5,2.5,5.5,5.4l0,0c0,2.9-2.2,5.4-5.5,5.4
		C440.3,438.4,438.1,435.8,438.1,433z M448.3,433L448.3,433c0-2.6-2-4.8-4.7-4.8s-4.6,2.1-4.6,4.7l0,0c0,2.6,2,4.7,4.7,4.7
		C446.4,437.7,448.3,435.5,448.3,433z"/>
</g>
<g>
	<path class="st5" d="M24.4,45.5h38.7v1.6h-37v26h33.5v1.6H26.2v26.8h-1.8V45.5z"/>
	<path class="st5" d="M74.3,45.5h22.9c7.3,0,12.6,1.8,16.1,5.3c2.6,2.6,4,6.1,4,10.4v0.2c0,9.4-7.5,15-18.3,15.7l18.6,24.5h-2.2
		L96.9,77.1H76.1v24.4h-1.8V45.5z M96.3,75.5c13,0,19.2-6.2,19.2-14.1v-0.2c0-8.9-6.9-14.2-18.5-14.2h-21v28.4H96.3z"/>
	<path class="st5" d="M128.6,73.6v-0.2c0-15.3,10.9-28.9,27.8-28.9c17,0,27.8,13.6,27.8,28.9v0.2c0,15.3-10.9,28.9-27.8,28.9
		C139.5,102.5,128.6,88.9,128.6,73.6z M182.5,73.7v-0.2c0-14.3-10.6-27.4-26.2-27.4c-15.7,0-26,12.8-26,27.2v0.2
		c0,14.3,10.6,27.4,26.2,27.4C172.2,100.9,182.5,88.1,182.5,73.7z"/>
	<path class="st5" d="M198.4,45.5h1.7l24.4,34.7l24.4-34.7h1.6v56h-1.8v-53L224.5,83h-0.1l-24.2-34.6v53h-1.8V45.5z"/>
</g>
<g>
	<path class="st5" d="M38.5,247H18.3v-1.6h42.2v1.6H40.3v54.4h-1.8V247z"/>
	<path class="st5" d="M64.1,273.5v-0.2c0-15.3,10.9-28.9,27.8-28.9c17,0,27.8,13.6,27.8,28.9v0.2c0,15.3-10.9,28.9-27.8,28.9
		C75,302.4,64.1,288.8,64.1,273.5z M118,273.6v-0.2c0-14.3-10.6-27.4-26.2-27.4c-15.7,0-26,12.8-26,27.2v0.2
		c0,14.3,10.6,27.4,26.2,27.4C107.7,300.8,118,288,118,273.6z"/>
</g>
</svg>
