<?xml version="1.0" encoding="utf-8"?>
<!-- Generator: Adobe Illustrator 23.1.0, SVG Export Plug-In . SVG Version: 6.00 Build 0)  -->
<svg version="1.1" id="Layer_1" xmlns="http://www.w3.org/2000/svg" xmlns:xlink="http://www.w3.org/1999/xlink" x="0px" y="0px"
	 viewBox="0 0 500 500" style="enable-background:new 0 0 500 500;" xml:space="preserve">
<style type="text/css">
	.st0{fill:none;stroke:#92FCFF;stroke-miterlimit:10;}
	.st1{fill:#92FCFF;}
	.st2{enable-background:new    ;}
	.st3{fill:#B5B5B5;}
	.st4{fill:#FFFFFF;}
	.st5{fill:#BBBDBF;}
</style>
<g>
	<rect y="-1" width="500" height="502"/>
</g>
<g>
	<g>
		<line class="st0" x1="448.5" y1="472.2" x2="158.9" y2="472.2"/>
		<g>
			<polygon class="st1" points="445.6,468.1 445,468.8 448.2,472.2 445,475.5 445.6,476.3 449.5,472.2 			"/>
		</g>
	</g>
</g>
<g class="st2">
	<path class="st3" d="M19.7,45.4h18c17.6,0,29.8,12.2,29.8,27.9v0.2c0,15.8-12.2,27.9-29.8,27.9h-18V45.4z M37.7,99.8
		c16.5,0,27.9-11.6,27.9-26.2v-0.2C65.7,58.7,54.1,47,37.6,47H21.4v52.8H37.7z"/>
	<path class="st3" d="M99.6,45h1.5l27,56.4h-1.9l-8-16.8H82.5l-8,16.8h-1.8L99.6,45z M117.3,83l-17-35.7L83.3,83H117.3z"/>
	<path class="st3" d="M139.3,45.4h22.9c7.3,0,12.6,1.8,16.1,5.3c2.6,2.6,4,6.1,4,10.4v0.2c0,9.4-7.5,15-18.3,15.7l18.6,24.5h-2.2
		L161.9,77h-20.8v24.4h-1.8L139.3,45.4L139.3,45.4z M161.3,75.4c13,0,19.2-6.2,19.2-14.1v-0.2c0-8.9-6.9-14.2-18.5-14.2h-21v28.4
		L161.3,75.4L161.3,75.4z"/>
	<path class="st3" d="M197.8,45.4h1.8v56h-1.8V45.4z"/>
</g>
<g class="st2">
	<path class="st4" d="M16.7,193.9l3.1-3.5c6.9,6.4,13.3,9.4,22.6,9.4c9.4,0,15.9-5.3,15.9-12.5v-0.2c0-6.7-3.5-10.5-17.8-13.4
		c-15.1-3.1-21.2-8.2-21.2-17.7v-0.2c0-9.4,8.5-16.6,20.2-16.6c9.2,0,15.2,2.5,21.6,7.6l-3,3.7c-5.9-5.1-11.9-7.1-18.8-7.1
		c-9.3,0-15.4,5.3-15.4,11.9v0.2c0,6.7,3.4,10.7,18.4,13.8c14.6,3,20.7,8.2,20.7,17.4v0.2C62.9,197,54.2,204,42,204
		C32,204,24.2,200.7,16.7,193.9z"/>
	<path class="st4" d="M100.9,139.6h4.5l29.3,63.4h-5.1l-8-17.6H84.4l-8,17.6h-4.9L100.9,139.6z M119.6,181.2L103,144.8l-16.6,36.4
		L119.6,181.2L119.6,181.2z"/>
	<path class="st4" d="M148.1,140.1h26c7.1,0,12.9,2.1,16.4,5.6c2.6,2.6,4,5.9,4,9.9v0.2c0,8.5-5.6,12.9-10.7,14.9
		c7.6,2,14.2,6.3,14.2,15v0.2c0,10.5-9,17.2-22.6,17.2H148v-63H148.1z M173.5,169.2c9.4,0,16.2-4.6,16.2-13V156
		c0-6.9-5.7-11.6-15.7-11.6h-21.2v24.7h20.7V169.2z M175.6,198.8c10.8,0,17.6-4.9,17.6-12.9v-0.2c0-7.7-6.7-12.2-19.2-12.2h-21.3
		v25.3L175.6,198.8L175.6,198.8z"/>
	<path class="st4" d="M237,139.6h4.5l29.3,63.4h-5.1l-8-17.6h-37.2l-8,17.6h-4.9L237,139.6z M255.7,181.2l-16.6-36.4l-16.6,36.4
		L255.7,181.2L255.7,181.2z"/>
	<path class="st4" d="M284.1,140.1h4.4l43.5,54.8v-54.8h4.5v63H333l-44.4-56v56h-4.5V140.1z"/>
	<path class="st4" d="M352.4,171.8v-0.2c0-17,12.3-32.6,31.1-32.6c10.3,0,16.7,3.1,23,8.3l-3.1,3.5c-5-4.3-10.7-7.6-20.2-7.6
		c-15.3,0-26,13-26,28.2v0.2c0,16.3,10.2,28.4,27,28.4c8,0,15.5-3.3,20.1-7.2v-18.1h-21.1v-4.3h25.6v24.3c-5.7,5-14.5,9.5-24.7,9.5
		C364.2,204.2,352.4,189.5,352.4,171.8z"/>
</g>
<g class="st2">
	<path class="st3" d="M16.1,292.4l1.3-1.3c5.7,5.5,12.9,8.6,21,8.6c10.5,0,17.2-5.7,17.2-13.2v-0.2c0-6.9-4.2-10.6-18.3-13.4
		c-13.8-2.8-19.1-6.9-19.1-14.7V258c0-7.8,7.7-14.3,18.2-14.3c7.4,0,13.9,2.5,19,6.4l-1.1,1.4c-5-3.8-11.2-6.2-18.1-6.2
		c-9.8,0-16.3,6.1-16.3,12.6v0.2c0,6.8,4.3,10.4,18.1,13.2c14.6,3,19.4,7.4,19.4,15v0.2c0,8.3-7.3,14.9-19.1,14.9
		C29.7,301.3,22.1,298.1,16.1,292.4z"/>
	<path class="st3" d="M91.8,244.1h1.5l27,56.4h-1.9l-8-16.8H74.7l-8,16.8h-1.8L91.8,244.1z M109.6,282.1l-17-35.7l-17,35.7H109.6z"
		/>
	<path class="st3" d="M131.6,244.5h1.7l24.4,34.7l24.4-34.7h1.6v56h-1.8v-53l-24.2,34.6h-0.1l-24.2-34.6v53h-1.8L131.6,244.5
		L131.6,244.5z"/>
	<path class="st3" d="M200.2,244.5h19.7c13.7,0,21.5,6.3,21.5,16.8v0.2c0,10.9-8.3,17-21.8,17H202v22h-1.8V244.5z M219.6,276.9
		c12.4,0,20.1-5.4,20.1-15.4v-0.2c0-9.5-7.4-15.3-19.9-15.3H202v30.8h17.6V276.9z"/>
	<path class="st3" d="M269.8,244.1h1.5l27,56.4h-1.9l-8-16.8h-35.7l-8,16.8h-1.8L269.8,244.1z M287.5,282.1l-17-35.7l-17,35.7H287.5
		z"/>
	<path class="st3" d="M310.1,244.5h1.8v56h-1.8V244.5z"/>
</g>
<g class="st2">
	<path class="st4" d="M20.3,339.2h4.2l24.1,37.3l24.1-37.3h4.2v63h-4.5v-54.7l-23.7,36.3h-0.3l-23.7-36.3v54.7h-4.3L20.3,339.2
		L20.3,339.2z"/>
	<path class="st4" d="M94.7,339.2h42.7v4.3H99.1v24.7h34.4v4.3H99.1v25.3h38.7v4.3H94.7V339.2z"/>
	<path class="st4" d="M152.1,339.2h25.2c7.4,0,13.3,2.4,16.9,6.2c2.8,3,4.5,7.2,4.5,11.7v0.2c0,10.5-7.5,16.6-17.6,18l19.8,26.9
		h-5.7l-19.1-26.1h-19.6v26.1H152v-63H152.1z M176.8,371.9c10,0,17.5-5.3,17.5-14.4v-0.2c0-8.5-6.3-13.8-17.2-13.8h-20.5v28.3h20.2
		V371.9z"/>
	<path class="st4" d="M236.9,338.8h4.3l27.9,63.4h-4.9l-7.6-17.6h-35.4l-7.6,17.6H209L236.9,338.8z M254.7,380.4L238.9,344
		L223,380.4H254.7z"/>
	<path class="st4" d="M278.7,376v-36.8h4.5v36.4c0,14.8,7.6,23.4,20.3,23.4c12.2,0,20-7.7,20-22.9v-36.8h4.5v36.3
		c0,18.1-10,27.7-24.6,27.7C288.9,403.2,278.7,393.7,278.7,376z"/>
	<path class="st4" d="M344.8,339.2h4.5v41.4l38.2-41.4h6.1L367.3,367l27.3,35.2h-5.8l-24.7-31.9l-14.9,15.8v16h-4.5v-62.9H344.8z"/>
	<path class="st4" d="M406.1,339.2h42.7v4.3h-38.2v24.7H445v4.3h-34.4v25.3h38.7v4.3h-43.1v-62.9H406.1z"/>
</g>
<g>
	<path class="st1" d="M18.9,472.3v-4.9h0.9v4.8c0,1.8,1,2.8,2.6,2.8c1.5,0,2.5-0.9,2.5-2.8v-4.9h0.9v4.8c0,2.4-1.4,3.7-3.5,3.7
		C20.3,476,18.9,474.7,18.9,472.3z"/>
	<path class="st1" d="M27.4,475l0.5-0.7c0.7,0.5,1.4,0.8,2.1,0.8c0.7,0,1.3-0.4,1.3-1v0c0-0.6-0.7-0.9-1.5-1.1
		c-1-0.3-2.1-0.6-2.1-1.8v0c0-1.1,0.9-1.8,2.1-1.8c0.8,0,1.6,0.3,2.2,0.7l-0.4,0.7c-0.6-0.4-1.2-0.6-1.8-0.6c-0.7,0-1.2,0.4-1.2,0.9
		v0c0,0.6,0.8,0.8,1.6,1.1c1,0.3,2,0.7,2,1.8v0c0,1.2-1,1.9-2.2,1.9C29.1,476,28.1,475.6,27.4,475z"/>
	<path class="st1" d="M33.4,474L33.4,474c0-1.4,1.1-2.1,2.7-2.1c0.8,0,1.3,0.1,1.9,0.3v-0.2c0-1.1-0.7-1.7-1.8-1.7
		c-0.7,0-1.3,0.2-1.9,0.4l-0.3-0.8c0.7-0.3,1.3-0.5,2.3-0.5c0.9,0,1.6,0.2,2,0.7c0.4,0.4,0.6,1,0.6,1.8v3.8H38v-0.9
		c-0.4,0.6-1.1,1.1-2.2,1.1C34.6,476,33.4,475.3,33.4,474z M38,473.6V473c-0.5-0.1-1.1-0.3-1.8-0.3c-1.2,0-1.8,0.5-1.8,1.2v0
		c0,0.8,0.7,1.2,1.6,1.2C37.1,475.2,38,474.5,38,473.6z"/>
	<path class="st1" d="M40.9,469.6h0.9v1.2c0.5-0.7,1.2-1.4,2.4-1.4c1.5,0,3,1.2,3,3.2v0c0,2-1.5,3.2-3,3.2c-1.2,0-1.9-0.6-2.4-1.3
		v3.1h-0.9V469.6z M46.2,472.8L46.2,472.8c0-1.5-1-2.4-2.2-2.4c-1.2,0-2.2,1-2.2,2.4v0c0,1.4,1.1,2.4,2.2,2.4
		C45.2,475.1,46.2,474.3,46.2,472.8z"/>
	<path class="st1" d="M52.3,473.5v-3.9h0.9v3.6c0,1.2,0.6,1.9,1.7,1.9c1.1,0,1.9-0.8,1.9-1.9v-3.6h0.9v6.2h-0.9v-1.1
		c-0.4,0.7-1.1,1.2-2.1,1.2C53.2,476,52.3,475,52.3,473.5z"/>
	<path class="st1" d="M59.8,469.6h0.9v1.1c0.4-0.7,1.1-1.2,2.1-1.2c1.5,0,2.4,1,2.4,2.5v3.9h-0.9v-3.6c0-1.2-0.6-1.9-1.7-1.9
		c-1.1,0-1.9,0.8-1.9,1.9v3.6h-0.9V469.6z"/>
	<path class="st1" d="M67.5,474.2v-3.7h-0.9v-0.8h0.9v-1.9h0.9v1.9h2v0.8h-2v3.6c0,0.8,0.4,1,1,1c0.3,0,0.6-0.1,0.9-0.2v0.8
		c-0.3,0.2-0.7,0.3-1.1,0.3C68.3,475.9,67.5,475.5,67.5,474.2z"/>
	<path class="st1" d="M72,473.5v-3.9h0.9v3.6c0,1.2,0.6,1.9,1.7,1.9c1.1,0,1.9-0.8,1.9-1.9v-3.6h0.9v6.2h-0.9v-1.1
		c-0.4,0.7-1.1,1.2-2.1,1.2C72.8,476,72,475,72,473.5z"/>
	<path class="st1" d="M79.5,467.1h0.9v6l3.3-3.5h1.2l-2.6,2.7l2.7,3.5h-1.1l-2.2-2.9l-1.3,1.3v1.6h-0.9V467.1z"/>
	<path class="st1" d="M89.9,469.6h0.9v1c0.4-0.6,1-1.2,2-1.2c1,0,1.7,0.5,2,1.2c0.4-0.7,1.1-1.2,2.2-1.2c1.4,0,2.3,1,2.3,2.5v3.8
		h-0.9v-3.6c0-1.2-0.6-1.9-1.6-1.9c-0.9,0-1.7,0.7-1.7,1.9v3.6h-0.9v-3.6c0-1.2-0.6-1.8-1.6-1.8s-1.7,0.8-1.7,2v3.5h-0.9V469.6z"/>
	<path class="st1" d="M104,475.2c0.9,0,1.5-0.3,2-0.9l0.6,0.5c-0.6,0.7-1.4,1.2-2.6,1.2c-1.7,0-3.1-1.3-3.1-3.2c0-1.8,1.3-3.2,3-3.2
		c1.8,0,2.9,1.5,2.9,3.3c0,0.1,0,0.2,0,0.3h-4.9C102,474.4,102.9,475.2,104,475.2z M105.8,472.4c-0.1-1.1-0.8-2.1-2-2.1
		c-1.1,0-1.9,0.9-2,2.1H105.8z"/>
	<path class="st1" d="M108.4,469.6h0.9v1.1c0.4-0.7,1.1-1.2,2.1-1.2c1.5,0,2.4,1,2.4,2.5v3.9h-0.9v-3.6c0-1.2-0.6-1.9-1.7-1.9
		c-1.1,0-1.9,0.8-1.9,1.9v3.6h-0.9V469.6z"/>
	<path class="st1" d="M114.7,477.7V477c0.1,0,0.3,0,0.5,0c0.4,0,0.7-0.3,0.7-0.8v-6.5h0.9v6.6c0,1.1-0.6,1.6-1.5,1.6
		C115.1,477.8,114.9,477.8,114.7,477.7z M115.8,467.3h1.1v1h-1.1V467.3z"/>
	<path class="st1" d="M121.7,475.2c0.9,0,1.5-0.3,2-0.9l0.6,0.5c-0.6,0.7-1.4,1.2-2.6,1.2c-1.7,0-3.1-1.3-3.1-3.2
		c0-1.8,1.3-3.2,3-3.2c1.8,0,2.9,1.5,2.9,3.3c0,0.1,0,0.2,0,0.3h-4.9C119.6,474.4,120.6,475.2,121.7,475.2z M123.5,472.4
		c-0.1-1.1-0.8-2.1-2-2.1c-1.1,0-1.9,0.9-2,2.1H123.5z"/>
	<path class="st1" d="M126.1,467.1h0.9v8.8h-0.9V467.1z"/>
	<path class="st1" d="M128.7,474L128.7,474c0-1.4,1.1-2.1,2.7-2.1c0.8,0,1.3,0.1,1.9,0.3v-0.2c0-1.1-0.7-1.7-1.8-1.7
		c-0.7,0-1.3,0.2-1.9,0.4l-0.3-0.8c0.7-0.3,1.3-0.5,2.3-0.5c0.9,0,1.6,0.2,2,0.7c0.4,0.4,0.6,1,0.6,1.8v3.8h-0.9v-0.9
		c-0.4,0.6-1.1,1.1-2.2,1.1C129.9,476,128.7,475.3,128.7,474z M133.3,473.6V473c-0.5-0.1-1.1-0.3-1.8-0.3c-1.2,0-1.8,0.5-1.8,1.2v0
		c0,0.8,0.7,1.2,1.6,1.2C132.4,475.2,133.3,474.5,133.3,473.6z"/>
	<path class="st1" d="M135.1,477.7V477c0.1,0,0.3,0,0.5,0c0.4,0,0.7-0.3,0.7-0.8v-6.5h0.9v6.6c0,1.1-0.6,1.6-1.5,1.6
		C135.4,477.8,135.3,477.8,135.1,477.7z M136.2,467.3h1.1v1h-1.1V467.3z"/>
	<path class="st1" d="M138.8,474L138.8,474c0-1.4,1.1-2.1,2.7-2.1c0.8,0,1.3,0.1,1.9,0.3v-0.2c0-1.1-0.7-1.7-1.8-1.7
		c-0.7,0-1.3,0.2-1.9,0.4l-0.3-0.8c0.7-0.3,1.3-0.5,2.3-0.5c0.9,0,1.6,0.2,2,0.7c0.4,0.4,0.6,1,0.6,1.8v3.8h-0.9v-0.9
		c-0.4,0.6-1.1,1.1-2.2,1.1C140,476,138.8,475.3,138.8,474z M143.4,473.6V473c-0.5-0.1-1.1-0.3-1.8-0.3c-1.2,0-1.8,0.5-1.8,1.2v0
		c0,0.8,0.7,1.2,1.6,1.2C142.5,475.2,143.4,474.5,143.4,473.6z"/>
	<path class="st1" d="M146.3,467.1h0.9v3.6c0.4-0.7,1.1-1.2,2.1-1.2c1.5,0,2.4,1,2.4,2.5v3.9h-0.9v-3.6c0-1.2-0.6-1.9-1.7-1.9
		c-1.1,0-1.9,0.8-1.9,1.9v3.6h-0.9V467.1z"/>
</g>
<g>
	<path class="st5" d="M17.5,427.8h1.2l3.7,5.4l3.7-5.4h1.2v9.8H26v-7.9l-3.7,5.3h-0.1l-3.7-5.2v7.9h-1.1V427.8z"/>
	<path class="st5" d="M29.6,432.7L29.6,432.7c0-2.7,2.1-5.1,5.2-5.1s5.1,2.3,5.1,5v0c0,2.7-2.1,5.1-5.2,5.1S29.6,435.4,29.6,432.7z
		 M38.7,432.7L38.7,432.7c0-2.3-1.7-4.1-4-4.1s-3.9,1.8-3.9,4v0c0,2.2,1.7,4,4,4S38.7,435,38.7,432.7z"/>
	<path class="st5" d="M42.2,427.8h3.5c3.2,0,5.4,2.1,5.4,4.9v0c0,2.8-2.2,4.9-5.4,4.9h-3.5V427.8z M45.7,436.6
		c2.5,0,4.2-1.7,4.2-3.9v0c0-2.2-1.6-3.9-4.2-3.9h-2.4v7.8H45.7z"/>
	<path class="st5" d="M53.5,427.8h7.3v1h-6.1v3.3h5.5v1h-5.5v3.4h6.2v1h-7.4V427.8z"/>
	<path class="st5" d="M63.1,427.8h1.1v8.8h5.7v1h-6.8V427.8z"/>
	<path class="st5" d="M75.7,436.2l0.7-0.8c1.1,0.9,2.1,1.4,3.5,1.4c1.4,0,2.2-0.7,2.2-1.7v0c0-0.9-0.5-1.4-2.6-1.9
		c-2.3-0.5-3.4-1.2-3.4-2.8v0c0-1.5,1.4-2.7,3.3-2.7c1.5,0,2.5,0.4,3.5,1.2l-0.7,0.9c-0.9-0.7-1.9-1.1-2.9-1.1
		c-1.3,0-2.1,0.7-2.1,1.6v0c0,0.9,0.5,1.4,2.7,1.9c2.2,0.5,3.3,1.3,3.3,2.8v0c0,1.7-1.4,2.8-3.4,2.8
		C78.2,437.7,76.9,437.2,75.7,436.2z"/>
	<path class="st5" d="M85.5,427.8h1.1v5.9l5.8-5.9h1.5l-4.3,4.3l4.5,5.5h-1.4l-3.9-4.7l-2.1,2.1v2.6h-1.1V427.8z"/>
	<path class="st5" d="M99.5,427.7h1.1l4.6,9.9H104l-1.2-2.6h-5.5l-1.2,2.6H95L99.5,427.7z M102.4,434l-2.3-5l-2.3,5H102.4z"/>
	<path class="st5" d="M107.2,427.8h1.1v8.8h5.7v1h-6.8V427.8z"/>
	<path class="st5" d="M119.8,427.7h1.1l4.6,9.9h-1.2l-1.2-2.6h-5.5l-1.2,2.6h-1.2L119.8,427.7z M122.6,434l-2.3-5l-2.3,5H122.6z"/>
	<path class="st5" d="M131.8,427.8h1.1l6.3,7.9v-7.9h1.1v9.8h-0.9l-6.5-8v8h-1.1V427.8z"/>
	<path class="st5" d="M143.1,427.8h7.3v1h-6.1v3.3h5.5v1h-5.5v3.4h6.2v1h-7.4V427.8z"/>
	<path class="st5" d="M152.3,432.7L152.3,432.7c0-2.7,2-5.1,5.1-5.1c1.7,0,2.7,0.5,3.8,1.3l-0.7,0.8c-0.8-0.7-1.6-1.1-3.1-1.1
		c-2.2,0-3.8,1.8-3.8,4v0c0,2.3,1.5,4.1,4,4.1c1.2,0,2.2-0.4,2.9-1v-2.4h-3.1v-1h4.2v3.9c-0.9,0.8-2.3,1.5-4,1.5
		C154.3,437.8,152.3,435.5,152.3,432.7z"/>
	<path class="st5" d="M167.8,427.7h1.1l4.6,9.9h-1.2L171,435h-5.5l-1.2,2.6h-1.2L167.8,427.7z M170.6,434l-2.3-5l-2.3,5H170.6z"/>
	<path class="st5" d="M175.4,427.8h4.3c1.2,0,2.2,0.4,2.9,1c0.5,0.5,0.8,1.2,0.8,1.9v0c0,1.6-1.2,2.6-2.7,2.9l3.1,4h-1.4l-2.9-3.8
		h-2.9v3.8h-1.1V427.8z M179.6,432.8c1.5,0,2.6-0.8,2.6-2v0c0-1.2-0.9-1.9-2.6-1.9h-3.1v4H179.6z"/>
	<path class="st5" d="M189.5,427.7h1.1l4.6,9.9H194l-1.2-2.6h-5.5l-1.2,2.6h-1.2L189.5,427.7z M192.3,434l-2.3-5l-2.3,5H192.3z"/>
	<path class="st5" d="M201.5,427.8h1.1v5.9l5.8-5.9h1.5l-4.3,4.3l4.5,5.5h-1.4l-3.9-4.7l-2.1,2.1v2.6h-1.1V427.8z"/>
	<path class="st5" d="M211.8,427.8h7.3v1H213v3.3h5.5v1H213v3.4h6.2v1h-7.4V427.8z"/>
	<path class="st5" d="M220.8,436.2l0.7-0.8c1.1,0.9,2.1,1.4,3.5,1.4c1.4,0,2.2-0.7,2.2-1.7v0c0-0.9-0.5-1.4-2.6-1.9
		c-2.3-0.5-3.4-1.2-3.4-2.8v0c0-1.5,1.4-2.7,3.3-2.7c1.5,0,2.5,0.4,3.5,1.2l-0.7,0.9c-0.9-0.7-1.9-1.1-2.9-1.1
		c-1.3,0-2.1,0.7-2.1,1.6v0c0,0.9,0.5,1.4,2.7,1.9c2.2,0.5,3.3,1.3,3.3,2.8v0c0,1.7-1.4,2.8-3.4,2.8
		C223.3,437.7,222,437.2,220.8,436.2z"/>
	<path class="st5" d="M234.2,427.7h1.1l4.6,9.9h-1.2l-1.2-2.6H232l-1.2,2.6h-1.2L234.2,427.7z M237,434l-2.3-5l-2.3,5H237z"/>
	<path class="st5" d="M243.2,428.8h-3.4v-1h7.9v1h-3.4v8.8h-1.2V428.8z"/>
	<path class="st5" d="M249.7,433.5v-5.7h1.1v5.6c0,2.1,1.2,3.3,3.1,3.3c1.9,0,3-1.1,3-3.2v-5.7h1.1v5.6c0,2.9-1.7,4.3-4.2,4.3
		C251.4,437.8,249.7,436.3,249.7,433.5z"/>
	<path class="st5" d="M264.1,427.7h1.1l4.6,9.9h-1.2l-1.2-2.6h-5.5l-1.2,2.6h-1.2L264.1,427.7z M266.9,434l-2.3-5l-2.3,5H266.9z"/>
	<path class="st5" d="M271.8,427.8h1.1l6.3,7.9v-7.9h1.1v9.8h-0.9l-6.5-8v8h-1.1V427.8z"/>
	<path class="st5" d="M287.4,427.8h4.3c1.2,0,2.2,0.4,2.9,1c0.5,0.5,0.8,1.2,0.8,1.9v0c0,1.6-1.2,2.6-2.7,2.9l3.1,4h-1.4l-2.9-3.8
		h-2.9v3.8h-1.1V427.8z M291.7,432.8c1.5,0,2.6-0.8,2.6-2v0c0-1.2-1-1.9-2.6-1.9h-3.1v4H291.7z"/>
	<path class="st5" d="M297.8,427.8h7.3v1H299v3.3h5.5v1H299v3.4h6.2v1h-7.4V427.8z"/>
	<path class="st5" d="M307.5,427.8h3.8c2.3,0,3.8,1.2,3.8,3.1v0c0,2.1-1.8,3.2-4,3.2h-2.4v3.5h-1.1V427.8z M311.1,433.1
		c1.7,0,2.8-0.9,2.8-2.2v0c0-1.4-1.1-2.1-2.7-2.1h-2.5v4.3H311.1z"/>
	<path class="st5" d="M316.9,433.5v-5.7h1.1v5.6c0,2.1,1.2,3.3,3.1,3.3c1.9,0,3-1.1,3-3.2v-5.7h1.1v5.6c0,2.9-1.7,4.3-4.2,4.3
		C318.6,437.8,316.9,436.3,316.9,433.5z"/>
	<path class="st5" d="M328,427.8h4.3c1.2,0,2.1,0.3,2.6,0.9c0.4,0.4,0.6,0.9,0.6,1.6v0c0,1.3-0.8,1.9-1.6,2.3c1.2,0.3,2.2,1,2.2,2.4
		v0c0,1.7-1.5,2.7-3.7,2.7H328V427.8z M332.1,432.2c1.4,0,2.3-0.6,2.3-1.8v0c0-1-0.8-1.6-2.2-1.6h-3.1v3.4H332.1z M332.5,436.6
		c1.5,0,2.5-0.7,2.5-1.8v0c0-1.1-0.9-1.7-2.7-1.7h-3.2v3.5H332.5z"/>
	<path class="st5" d="M338.4,427.8h1.1v8.8h5.7v1h-6.8V427.8z"/>
	<path class="st5" d="M347.4,427.8h1.1v9.8h-1.1V427.8z"/>
	<path class="st5" d="M351.5,427.8h1.1v5.9l5.8-5.9h1.5l-4.3,4.3l4.5,5.5h-1.4l-3.9-4.7l-2.1,2.1v2.6h-1.1V427.8z"/>
	<path class="st5" d="M366.2,427.8h1.1v9.8h-1.1V427.8z"/>
	<path class="st5" d="M370.3,427.8h1.1l6.3,7.9v-7.9h1.1v9.8h-0.9l-6.5-8v8h-1.1V427.8z"/>
	<path class="st5" d="M381.7,427.8h3.5c3.2,0,5.4,2.1,5.4,4.9v0c0,2.8-2.2,4.9-5.4,4.9h-3.5V427.8z M385.2,436.6
		c2.5,0,4.2-1.7,4.2-3.9v0c0-2.2-1.6-3.9-4.2-3.9h-2.4v7.8H385.2z"/>
	<path class="st5" d="M392.5,432.7L392.5,432.7c0-2.7,2.1-5.1,5.2-5.1c3.1,0,5.1,2.3,5.1,5v0c0,2.7-2.1,5.1-5.2,5.1
		C394.6,437.8,392.5,435.4,392.5,432.7z M401.6,432.7L401.6,432.7c0-2.3-1.7-4.1-4-4.1c-2.3,0-3.9,1.8-3.9,4v0c0,2.2,1.7,4,4,4
		C399.9,436.7,401.6,435,401.6,432.7z"/>
	<path class="st5" d="M405.2,427.8h1.1l6.3,7.9v-7.9h1.1v9.8h-0.9l-6.5-8v8h-1.1V427.8z"/>
	<path class="st5" d="M416.5,427.8h7.3v1h-6.1v3.3h5.5v1h-5.5v3.4h6.2v1h-7.4V427.8z"/>
	<path class="st5" d="M425.5,436.2l0.7-0.8c1.1,0.9,2.1,1.4,3.5,1.4c1.4,0,2.2-0.7,2.2-1.7v0c0-0.9-0.5-1.4-2.6-1.9
		c-2.3-0.5-3.4-1.2-3.4-2.8v0c0-1.5,1.4-2.7,3.3-2.7c1.5,0,2.5,0.4,3.5,1.2l-0.7,0.9c-0.9-0.7-1.9-1.1-2.9-1.1
		c-1.3,0-2.1,0.7-2.1,1.6v0c0,0.9,0.5,1.4,2.7,1.9c2.2,0.5,3.3,1.3,3.3,2.8v0c0,1.7-1.4,2.8-3.4,2.8
		C428,437.7,426.7,437.2,425.5,436.2z"/>
	<path class="st5" d="M435.5,427.8h1.1v9.8h-1.1V427.8z"/>
	<path class="st5" d="M443.3,427.7h1.1l4.6,9.9h-1.2l-1.2-2.6h-5.5l-1.2,2.6h-1.2L443.3,427.7z M446.1,434l-2.3-5l-2.3,5H446.1z"/>
</g>
</svg>
