<?xml version="1.0" encoding="utf-8"?>
<!-- Generator: Adobe Illustrator 23.1.0, SVG Export Plug-In . SVG Version: 6.00 Build 0)  -->
<svg version="1.1" id="Layer_1" xmlns="http://www.w3.org/2000/svg" xmlns:xlink="http://www.w3.org/1999/xlink" x="0px" y="0px"
	 viewBox="0 0 500 500" style="enable-background:new 0 0 500 500;" xml:space="preserve">
<style type="text/css">
	.st0{fill:none;stroke:#FFFFFF;stroke-width:0.5;stroke-miterlimit:10;}
	.st1{fill:none;stroke:#FFFFFF;stroke-width:0.75;stroke-miterlimit:10;}
	.st2{fill:#FFFFFF;}
	.st3{fill:#A4DCE8;}
	.st4{fill:none;}
	.st5{fill:#B5B5B5;}
	.st6{enable-background:new    ;}
</style>
<line class="st0" x1="45.5" y1="410" x2="454.5" y2="410"/>
<g>
	<g>
		<polyline class="st1" points="249.1,291.8 249.1,345.8 257,345.8 		"/>
		<g>
			<circle class="st2" cx="256.9" cy="345.8" r="2.1"/>
		</g>
	</g>
</g>
<path class="st3" d="M267.9,340.2l-2.6,0.8l-0.2-0.8l3.1-1.1h0.7v13.6h-1V340.2L267.9,340.2z"/>
<path class="st3" d="M287.8,346.3L287.8,346.3c0-3.7,2.2-7,5.6-7s5.5,3.2,5.5,7l0,0c0,3.7-2.2,7-5.6,7
	C289.9,353.3,287.8,350,287.8,346.3z M297.9,346.3L297.9,346.3c0-3.1-1.8-6.1-4.6-6.1s-4.6,2.9-4.6,6l0,0c0,3.1,1.8,6,4.6,6
	S297.9,349.4,297.9,346.3z"/>
<path class="st3" d="M272.1,346.3L272.1,346.3c0-3.7,2.2-7,5.6-7s5.5,3.2,5.5,7l0,0c0,3.7-2.2,7-5.6,7
	C274.2,353.3,272.1,350,272.1,346.3z M282.1,346.3L282.1,346.3c0-3.1-1.8-6.1-4.6-6.1s-4.6,2.9-4.6,6l0,0c0,3.1,1.8,6,4.6,6
	S282.1,349.4,282.1,346.3z"/>
<path class="st3" d="M301.5,346.3L301.5,346.3c0-3.7,2.2-7,5.6-7s5.5,3.2,5.5,7l0,0c0,3.7-2.2,7-5.6,7
	C303.6,353.3,301.5,350,301.5,346.3z M311.5,346.3L311.5,346.3c0-3.1-1.8-6.1-4.6-6.1s-4.6,2.9-4.6,6l0,0c0,3.1,1.8,6,4.6,6
	S311.5,349.4,311.5,346.3z"/>
<path class="st3" d="M315,346.3L315,346.3c0-3.7,2.2-7,5.6-7c3.5,0,5.5,3.2,5.5,7l0,0c0,3.7-2.2,7-5.6,7
	C317.2,353.3,315,350,315,346.3z M325.2,346.3L325.2,346.3c0-3.1-1.8-6.1-4.6-6.1s-4.6,2.9-4.6,6l0,0c0,3.1,1.8,6,4.6,6
	S325.2,349.4,325.2,346.3z"/>
<path class="st3" d="M389.3,339.9h1v10.6l6.1-6.2h1.2l-4.3,4.2l4.4,5.4h-1.2l-3.8-4.8l-2.4,2.4v2.4h-1V339.9L389.3,339.9z"/>
<path class="st3" d="M400.1,344h1v1.8c0.6-1,1.6-1.9,3.2-1.9c1.7,0,2.8,1,3.4,2.2c0.6-1.1,1.7-2.2,3.5-2.2c2.3,0,3.7,1.7,3.7,4.1
	v5.9h-1V348c0-2.2-1.1-3.4-2.9-3.4c-1.7,0-3.1,1.3-3.1,3.5v5.8h-1V348c0-2-1.1-3.2-2.9-3.2c-1.8,0-3.1,1.6-3.1,3.5v5.6h-1L400.1,344
	L400.1,344z"/>
<g>
	<title>Asset 3</title>
	<g>
		<g id="Layer_1-2_2_">
			<rect x="148.6" y="291.8" class="st4" width="100" height="33"/>
			<line class="st1" x1="149.1" y1="291.8" x2="149.1" y2="324.8"/>
			<line class="st0" x1="169.1" y1="303.8" x2="169.1" y2="324.8"/>
			<line class="st0" x1="159.1" y1="303.8" x2="159.1" y2="324.8"/>
			<line class="st0" x1="189.1" y1="303.8" x2="189.1" y2="324.8"/>
			<line class="st0" x1="179.1" y1="303.8" x2="179.1" y2="324.8"/>
			<line class="st0" x1="199.1" y1="303.8" x2="199.1" y2="324.8"/>
			<line class="st0" x1="209.1" y1="303.8" x2="209.1" y2="324.8"/>
			<line class="st0" x1="229.1" y1="303.8" x2="229.1" y2="324.8"/>
			<line class="st0" x1="219.1" y1="303.8" x2="219.1" y2="324.8"/>
			<line class="st0" x1="239" y1="303.8" x2="239" y2="324.8"/>
		</g>
	</g>
</g>
<path class="st3" d="M331.1,343.8h1v1.8c0.6-1,1.6-1.9,3.2-1.9c1.7,0,2.8,1,3.4,2.2c0.6-1.1,1.7-2.2,3.5-2.2c2.3,0,3.7,1.7,3.7,4.1
	v5.9h-1v-5.9c0-2.2-1.1-3.4-2.9-3.4c-1.7,0-3.1,1.3-3.1,3.5v5.8h-0.8v-5.9c0-2-1.1-3.2-2.9-3.2c-1.8,0-3.1,1.6-3.1,3.5v5.6h-1V343.8
	L331.1,343.8z"/>
<path class="st3" d="M357.3,339.9h1.1l-5.2,13.8h-1.1L357.3,339.9z"/>
<path class="st3" d="M368.8,341l-2.6,0.8l-0.2-0.8l3.1-1.1h0.7v13.6h-1V341L368.8,341z"/>
<path class="st3" d="M373.7,346.8L373.7,346.8c0-3.7,2.2-7,5.6-7s5.5,3.2,5.5,7l0,0c0,3.7-2.2,7-5.6,7
	C375.9,353.6,373.7,350.5,373.7,346.8z M383.8,346.8L383.8,346.8c0-3.1-1.8-6.1-4.6-6.1s-4.6,2.9-4.6,6l0,0c0,3.1,1.8,6,4.6,6
	S383.8,349.9,383.8,346.8z"/>
<g>
	<line class="st0" x1="169.1" y1="96.9" x2="44.2" y2="96.9"/>
	<line class="st0" x1="330.8" y1="96.9" x2="455.8" y2="96.9"/>
	<g>
		<path class="st5" d="M183.7,106.3l1.3-1.4c3,2.8,5.6,4,9.6,4c4.1,0,6.8-2.3,6.8-5.3v-0.1c0-2.9-1.4-4.4-7.6-5.8
			c-6.5-1.3-9.1-3.5-9.1-7.6l0,0c0-4,3.6-7.1,8.6-7.1c4,0,6.5,1.1,9.2,3.2l-1.3,1.6c-2.5-2.2-5-3-8-3c-4,0-6.6,2.3-6.6,5V90
			c0,2.9,1.4,4.6,7.8,5.9c6.2,1.3,8.9,3.5,8.9,7.4v0.1c0,4.3-3.7,7.3-8.9,7.3C190.2,110.7,186.9,109.2,183.7,106.3z"/>
		<path class="st5" d="M210,83.4h2v17.6l17.2-17.6h2.8l-11.8,11.9l12.2,15h-2.6l-11-13.6l-6.7,6.7v6.8h-2V83.4z"/>
		<path class="st5" d="M247.7,83.2h1.9l12.5,27.1h-2.2l-3.4-7.6h-15.8l-3.4,7.6h-2L247.7,83.2z M255.6,100.9l-7.1-15.6l-7.1,15.6
			H255.6z"/>
		<path class="st5" d="M267.7,83.4h2v25.1h15.8v1.8h-17.8V83.4H267.7z"/>
		<path class="st5" d="M301.8,83.2h1.9l12.5,27.1h-2.2l-3.4-7.6h-15.8l-3.4,7.6h-2L301.8,83.2z M309.7,100.9l-7.1-15.6l-7.1,15.6
			H309.7z"/>
	</g>
</g>
<g>
	<rect x="147.9" y="201.7" class="st2" width="0.9" height="0.9"/>
	<g>
		<g>
			<rect x="103.9" y="202" class="st3" width="29.2" height="0.5"/>
			<g>
				<polygon class="st3" points="129.8,198.2 129.1,198.9 132.7,202.3 129.1,205.6 129.8,206.3 134.2,202.3 				"/>
			</g>
		</g>
	</g>
	<g>
		<g>
			<rect x="241.6" y="202.3" class="st3" width="30.6" height="0.5"/>
			<g>
				<polygon class="st3" points="244.9,206.7 245.6,205.9 242,202.6 245.6,199.2 244.9,198.5 240.5,202.6 				"/>
			</g>
		</g>
	</g>
	<g class="st6">
		<path class="st3" d="M47.5,195.6l-2.3,0.7l-0.2-0.7l2.6-1h0.7v11.9h-0.8C47.5,206.7,47.5,195.6,47.5,195.6z"/>
		<path class="st3" d="M56.7,198h0.8v1.9c0.7-1.1,1.8-2.2,3.5-2.2c2,0,4.2,1.7,4.2,4.4l0,0c0,2.8-2.2,4.4-4.2,4.4
			c-1.7,0-2.9-1-3.5-2v4.6h-0.8C56.7,209.2,56.7,198,56.7,198z M64.3,202.3L64.3,202.3c0-2.3-1.6-3.7-3.4-3.7
			c-1.8,0-3.5,1.4-3.5,3.7l0,0c0,2.2,1.7,3.7,3.5,3.7C62.8,206.1,64.3,204.6,64.3,202.3z"/>
		<path class="st3" d="M67.7,194.7h1.1v1.1h-1.1V194.7z M67.9,198h0.8v8.5h-0.8V198z"/>
		<path class="st3" d="M75.2,202.8l-3,3.8h-1l3.5-4.3l-3.4-4.2h1.1l2.9,3.6l2.9-3.6h1l-3.4,4.2l3.5,4.4h-1.1L75.2,202.8z"/>
		<path class="st3" d="M80.3,202.3L80.3,202.3c0-2.5,1.8-4.6,4.1-4.6c2.4,0,4,1.9,4,4.4c0,0.1,0,0.2,0,0.4h-7.2
			c0.1,2.2,1.7,3.4,3.4,3.4c1.3,0,2.3-0.6,3-1.3l0.6,0.5c-0.8,1-1.9,1.6-3.6,1.6C82.3,206.8,80.3,205,80.3,202.3z M87.4,201.9
			c-0.1-1.7-1.1-3.4-3.1-3.4c-1.7,0-3,1.4-3.1,3.4H87.4z"/>
		<path class="st3" d="M90.9,194.3h0.8v12.2h-0.8V194.3z"/>
	</g>
	<path class="st2" d="M160.2,199.8h8.2v0.9h-8.2V199.8z M160.2,203.8h8.2v0.9h-8.2V203.8z"/>
	<g class="st6">
		<path class="st2" d="M179.1,196.4l-2.6,0.8l-0.2-0.8l3.1-1.1h0.7v13.6h-1L179.1,196.4L179.1,196.4z"/>
		<path class="st2" d="M183.3,202.3L183.3,202.3c0-3.7,2.2-7,5.6-7s5.5,3.2,5.5,7l0,0c0,3.7-2.2,7-5.6,7
			C185.5,209.2,183.3,206,183.3,202.3z M193.4,202.3L193.4,202.3c0-3.1-1.8-6.1-4.6-6.1c-2.8,0-4.6,2.9-4.6,6l0,0c0,3.1,1.8,6,4.6,6
			C191.6,208.1,193.4,205.4,193.4,202.3z"/>
		<path class="st2" d="M197,202.3L197,202.3c0-3.7,2.2-7,5.6-7c3.4,0,5.5,3.2,5.5,7l0,0c0,3.7-2.2,7-5.6,7
			C199,209.2,197,206,197,202.3z M207.1,202.3L207.1,202.3c0-3.1-1.8-6.1-4.6-6.1c-2.8,0-4.6,2.9-4.6,6l0,0c0,3.1,1.8,6,4.6,6
			C205.3,208.1,207.1,205.4,207.1,202.3z"/>
		<path class="st2" d="M213.2,199.1h1v1.8c0.6-1,1.6-1.9,3.2-1.9s2.8,1,3.4,2.2c0.6-1.1,1.7-2.2,3.5-2.2c2.3,0,3.7,1.7,3.7,4.1v5.9
			h-1v-5.9c0-2.2-1.1-3.4-2.9-3.4c-1.7,0-3.1,1.3-3.1,3.5v5.8h-1v-5.9c0-2-1.1-3.2-2.9-3.2s-3.1,1.6-3.1,3.5v5.6h-0.8V199.1
			L213.2,199.1z"/>
	</g>
	<g>
		<path class="st3" d="M287,195.2l0.6-0.6c1.3,1.2,2.5,1.8,4.2,1.8c1.8,0,3-1,3-2.3l0,0c0-1.2-0.6-1.9-3.4-2.5c-2.9-0.6-4-1.6-4-3.4
			l0,0c0-1.8,1.6-3.1,3.8-3.1c1.7,0,2.9,0.5,4.1,1.4l-0.6,0.7c-1.1-1-2.2-1.3-3.5-1.3c-1.7,0-2.9,1-2.9,2.2l0,0c0,1.2,0.6,2,3.5,2.5
			c2.8,0.6,3.8,1.6,3.8,3.2l0,0c0,1.9-1.7,3.2-4,3.2C289.9,197.1,288.5,196.5,287,195.2z"/>
		<path class="st3" d="M297.7,192.7L297.7,192.7c0-2.5,1.8-4.6,4.1-4.6c2.4,0,4,1.9,4,4.4c0,0.1,0,0.2,0,0.4h-7.1
			c0.1,2.2,1.7,3.4,3.4,3.4c1.3,0,2.3-0.6,3-1.3l0.6,0.5c-0.8,1-1.9,1.6-3.6,1.6C299.8,197.1,297.7,195.3,297.7,192.7z M304.9,192.2
			c-0.1-1.7-1.1-3.4-3.1-3.4c-1.7,0-3,1.4-3.1,3.4H304.9z"/>
		<path class="st3" d="M308.2,184.7h0.8v9.2l5.3-5.5h1.1l-3.7,3.8l3.8,4.8h-1.1l-3.4-4.2l-2,2.2v2h-0.8V184.7z"/>
		<path class="st3" d="M317.6,185h1.1v1.1h-1.1V185z M317.8,188.4h0.8v8.5h-0.8V188.4z"/>
		<path class="st3" d="M322.2,194.7v-5.6H321v-0.7h1.2v-2.8h0.8v2.8h3v0.7h-3v5.5c0,1.2,0.7,1.7,1.7,1.7c0.5,0,0.7-0.1,1.3-0.4v0.7
			c-0.5,0.2-0.8,0.4-1.4,0.4C323.3,197.1,322.2,196.4,322.2,194.7z"/>
		<path class="st3" d="M327.8,194.5L327.8,194.5c0-1.8,1.6-2.9,3.7-2.9c1.2,0,2,0.1,2.9,0.4v-0.4c0-1.7-1.1-2.6-2.9-2.6
			c-1.1,0-1.9,0.2-2.6,0.7l-0.4-0.7c1-0.5,1.9-0.7,3-0.7c1.2,0,2,0.4,2.8,1c0.6,0.6,0.8,1.3,0.8,2.4v5.4h-0.8v-1.4
			c-0.6,0.8-1.7,1.7-3.2,1.7C329.5,197.1,327.8,196.3,327.8,194.5z M334.4,193.8v-1c-0.7-0.2-1.7-0.4-2.9-0.4c-1.8,0-2.9,0.8-2.9,2
			l0,0c0,1.2,1.2,1.9,2.5,1.9C332.9,196.4,334.4,195.3,334.4,193.8z"/>
		<path class="st3" d="M338.2,188.4h0.8v2.4c0.7-1.6,2.2-2.6,3.8-2.5v1h-0.1c-2,0-3.7,1.4-3.7,4.3v3.5h-0.8V188.4z"/>
		<path class="st3" d="M349.9,188.4h0.8v1.9c0.7-1.1,1.8-2.2,3.5-2.2c2,0,4.2,1.7,4.2,4.4l0,0c0,2.8-2.2,4.4-4.2,4.4
			c-1.7,0-2.9-1-3.5-2v4.6h-0.8V188.4z M357.5,192.7L357.5,192.7c0-2.3-1.6-3.7-3.4-3.7c-1.8,0-3.5,1.4-3.5,3.7l0,0
			c0,2.2,1.7,3.7,3.5,3.7C356,196.4,357.5,195,357.5,192.7z"/>
		<path class="st3" d="M360.2,194.5L360.2,194.5c0-1.8,1.6-2.9,3.7-2.9c1.2,0,2,0.1,2.9,0.4v-0.4c0-1.7-1.1-2.6-2.9-2.6
			c-1.1,0-1.9,0.2-2.6,0.7L361,189c1-0.5,1.9-0.7,3-0.7c1.2,0,2,0.4,2.8,1c0.6,0.6,0.8,1.3,0.8,2.4v5.4h-0.8v-1.4
			c-0.6,0.8-1.7,1.7-3.2,1.7C362,197.1,360.2,196.3,360.2,194.5z M366.8,193.8v-1c-0.7-0.2-1.7-0.4-2.9-0.4c-1.8,0-2.9,0.8-2.9,2
			l0,0c0,1.2,1.2,1.9,2.5,1.9C365.4,196.4,366.8,195.3,366.8,193.8z"/>
		<path class="st3" d="M370.7,188.4h0.8v1.6c0.6-1,1.6-1.8,3.1-1.8c2.2,0,3.5,1.4,3.5,3.5v5.3h-0.8v-5c0-1.8-1-2.9-2.8-2.9
			c-1.7,0-3,1.3-3,3v4.9h-0.8V188.4z"/>
		<path class="st3" d="M379.3,199.7v-0.7c0.2,0,0.5,0,0.7,0c0.6,0,1.1-0.4,1.1-1.2v-9.4h0.8v9.4c0,1.3-0.7,2-1.8,2
			C379.8,199.7,379.6,199.7,379.3,199.7z M380.9,185h1.1v1.1h-1.1V185z"/>
		<path class="st3" d="M384.4,194.5L384.4,194.5c0-1.8,1.6-2.9,3.7-2.9c1.2,0,2,0.1,2.9,0.4v-0.4c0-1.7-1.1-2.6-2.9-2.6
			c-1.1,0-1.9,0.2-2.6,0.7l-0.4-0.7c1-0.5,1.9-0.7,3-0.7c1.2,0,2,0.4,2.8,1c0.6,0.6,0.8,1.3,0.8,2.4v5.4h-0.8v-1.4
			c-0.6,0.8-1.7,1.7-3.2,1.7C386.2,197.1,384.4,196.3,384.4,194.5z M391,193.8v-1c-0.7-0.2-1.7-0.4-2.9-0.4c-1.8,0-2.9,0.8-2.9,2
			l0,0c0,1.2,1.2,1.9,2.5,1.9C389.5,196.4,391,195.3,391,193.8z"/>
		<path class="st3" d="M394.8,188.4h0.8v1.6c0.6-1,1.6-1.8,3.1-1.8c2.2,0,3.5,1.4,3.5,3.5v5.3h-1v-5c0-1.8-1-2.9-2.8-2.9
			c-1.7,0-3,1.3-3,3v4.9h-0.8v-8.5H394.8z"/>
		<path class="st3" d="M404.9,198.3l0.5-0.7c1.1,0.8,2.2,1.2,3.5,1.2c1.9,0,3.4-1.1,3.4-3.4v-1.2c-0.7,1.1-1.9,2-3.6,2
			c-2,0-4.1-1.6-4.1-4.1l0,0c0-2.5,2-4.1,4.1-4.1c1.7,0,2.9,1,3.6,1.9v-1.7h0.8v7.2c0,1.2-0.4,2.2-1.1,2.9c-0.7,0.7-1.8,1.2-3.1,1.2
			C407.4,199.7,406.1,199.3,404.9,198.3z M412.2,192.2L412.2,192.2c0-2-1.8-3.2-3.6-3.2c-1.8,0-3.4,1.2-3.4,3.2l0,0
			c0,1.9,1.6,3.2,3.4,3.2C410.5,195.6,412.2,194.3,412.2,192.2z"/>
		<path class="st3" d="M288,204.9h0.8v12.2H288V204.9z"/>
		<path class="st3" d="M291.3,214.8L291.3,214.8c0-1.8,1.6-2.9,3.7-2.9c1.2,0,2,0.1,2.9,0.4v-0.4c0-1.7-1.1-2.6-2.9-2.6
			c-1.1,0-1.9,0.2-2.6,0.7l-0.4-0.7c1-0.5,1.9-0.7,3-0.7c1.2,0,2,0.4,2.8,1c0.6,0.6,0.8,1.3,0.8,2.4v5.4h-0.7v-1.4
			c-0.6,0.8-1.7,1.7-3.2,1.7C293,217.4,291.3,216.6,291.3,214.8z M297.9,214.1v-1c-0.7-0.2-1.7-0.4-2.9-0.4c-1.8,0-2.9,0.8-2.9,2
			l0,0c0,1.2,1.2,1.9,2.5,1.9C296.4,216.7,297.9,215.6,297.9,214.1z"/>
		<path class="st3" d="M301.6,208.7h0.8v1.9c0.7-1.1,1.8-2.2,3.5-2.2c2,0,4.2,1.7,4.2,4.4l0,0c0,2.8-2.2,4.4-4.2,4.4
			c-1.7,0-2.9-1-3.5-2v4.6h-0.8V208.7z M309.3,213L309.3,213c0-2.3-1.6-3.7-3.4-3.7c-1.8,0-3.5,1.4-3.5,3.7l0,0
			c0,2.2,1.7,3.7,3.5,3.7C307.8,216.7,309.3,215.3,309.3,213z"/>
		<path class="st3" d="M312.1,214.8L312.1,214.8c0-1.8,1.6-2.9,3.7-2.9c1.2,0,2,0.1,2.9,0.4v-0.4c0-1.7-1.1-2.6-2.9-2.6
			c-1.1,0-1.9,0.2-2.6,0.7l-0.4-0.7c1-0.5,1.9-0.7,3-0.7c1.2,0,2,0.4,2.8,1c0.6,0.6,0.8,1.3,0.8,2.4v5.4h-0.8v-1.4
			c-0.6,0.8-1.7,1.7-3.2,1.7C313.8,217.4,312.1,216.6,312.1,214.8z M318.7,214.1v-1c-0.7-0.2-1.7-0.4-2.9-0.4c-1.8,0-2.9,0.8-2.9,2
			l0,0c0,1.2,1.2,1.9,2.5,1.9C317.1,216.7,318.7,215.6,318.7,214.1z"/>
		<path class="st3" d="M322.4,208.7h0.8v1.6c0.6-1,1.6-1.8,3.1-1.8c2.2,0,3.5,1.4,3.5,3.5v5.3H329v-5c0-1.8-1-2.9-2.8-2.9
			c-1.7,0-3,1.3-3,3v4.9h-0.8V208.7z"/>
		<path class="st3" d="M332.5,218.6l0.5-0.7c1.1,0.8,2.2,1.2,3.5,1.2c1.9,0,3.4-1.1,3.4-3.4v-1.2c-0.7,1.1-1.9,2-3.6,2
			c-2,0-4.1-1.6-4.1-4.1l0,0c0-2.5,2-4.1,4.1-4.1c1.7,0,2.9,1,3.6,1.9v-1.7h0.8v7.2c0,1.2-0.4,2.2-1.1,2.9c-0.7,0.7-1.8,1.2-3.1,1.2
			C335,219.9,333.7,219.6,332.5,218.6z M339.9,212.5L339.9,212.5c0-2-1.8-3.2-3.6-3.2c-1.8,0-3.4,1.2-3.4,3.2l0,0
			c0,1.9,1.6,3.2,3.4,3.2C338.1,215.9,339.9,214.5,339.9,212.5z"/>
		<path class="st3" d="M343,214.8L343,214.8c0-1.8,1.6-2.9,3.7-2.9c1.2,0,2,0.1,2.9,0.4v-0.4c0-1.7-1.1-2.6-2.9-2.6
			c-1.1,0-1.9,0.2-2.6,0.7l-0.4-0.7c1-0.5,1.9-0.7,3-0.7c1.2,0,2,0.4,2.8,1c0.6,0.6,0.8,1.3,0.8,2.4v5.4h-0.8v-1.4
			c-0.6,0.8-1.7,1.7-3.2,1.7C344.7,217.4,343,216.6,343,214.8z M349.6,214.1v-1c-0.7-0.2-1.7-0.4-2.9-0.4c-1.8,0-2.9,0.8-2.9,2l0,0
			c0,1.2,1.2,1.9,2.5,1.9C348.2,216.7,349.6,215.6,349.6,214.1z"/>
		<path class="st3" d="M353.4,208.7h0.8v1.6c0.6-1,1.6-1.8,3.1-1.8c2.2,0,3.5,1.4,3.5,3.5v5.3H360v-5c0-1.8-1-2.9-2.8-2.9
			c-1.7,0-3,1.3-3,3v4.9h-0.8V208.7z"/>
		<path class="st3" d="M368.4,216.3l0.5-0.6c1,0.7,2,1.1,3.1,1.1c1.2,0,2-0.6,2-1.7l0,0c0-1-1.1-1.3-2.3-1.7c-1.4-0.4-3-0.8-3-2.4
			l0,0c0-1.3,1.2-2.4,2.9-2.4c1.1,0,2.2,0.4,3,1l-0.5,0.7c-0.8-0.5-1.7-0.8-2.6-0.8c-1.2,0-1.9,0.6-1.9,1.4l0,0c0,1,1.2,1.3,2.4,1.7
			c1.3,0.4,2.9,0.8,2.9,2.4l0,0c0,1.6-1.3,2.5-3,2.5C370.7,217.5,369.3,217.1,368.4,216.3z"/>
		<path class="st3" d="M376.8,213.1L376.8,213.1c0-2.5,1.8-4.6,4.1-4.6c2.4,0,4,1.9,4,4.4c0,0.1,0,0.2,0,0.4h-7.1
			c0.1,2.2,1.7,3.4,3.4,3.4c1.3,0,2.3-0.6,3-1.3l0.6,0.5c-0.8,1-1.9,1.6-3.6,1.6C378.9,217.5,376.8,215.7,376.8,213.1z M384,212.6
			c-0.1-1.7-1.1-3.4-3.1-3.4c-1.7,0-3,1.4-3.1,3.4H384z"/>
		<path class="st3" d="M387.3,208.8h0.8v1.9c0.7-1.1,1.8-2.2,3.5-2.2c2,0,4.2,1.7,4.2,4.4l0,0c0,2.8-2.2,4.4-4.2,4.4
			c-1.7,0-2.9-1-3.5-2v4.6h-0.8V208.8z M394.9,213.1L394.9,213.1c0-2.3-1.6-3.7-3.4-3.7s-3.5,1.4-3.5,3.7l0,0c0,2.2,1.7,3.7,3.5,3.7
			S394.9,215.4,394.9,213.1z"/>
		<path class="st3" d="M397.7,214.9L397.7,214.9c0-1.8,1.6-2.9,3.7-2.9c1.2,0,2,0.1,2.9,0.4V212c0-1.7-1.1-2.6-2.9-2.6
			c-1.1,0-1.9,0.2-2.6,0.7l-0.4-0.7c1-0.5,1.9-0.7,3-0.7c1.2,0,2,0.4,2.8,1c0.6,0.6,0.8,1.3,0.8,2.4v5.4h-0.8V216
			c-0.6,0.8-1.7,1.7-3.2,1.7C399.4,217.5,397.7,216.7,397.7,214.9z M404.3,214.2v-1c-0.7-0.2-1.7-0.4-2.9-0.4c-1.8,0-2.9,0.8-2.9,2
			l0,0c0,1.2,1.2,1.9,2.5,1.9C402.7,216.8,404.3,215.7,404.3,214.2z"/>
		<path class="st3" d="M408,205.1h0.8v9.2l5.3-5.5h1.1l-3.7,3.8l3.8,4.8h-1.1l-3.4-4.2l-2,2.2v2H408V205.1z"/>
		<path class="st3" d="M423.3,215.5v1.8h-0.8v-12.2h0.8v5.6c0.7-1.1,1.8-2.2,3.5-2.2c2,0,4.2,1.7,4.2,4.4l0,0c0,2.8-2.2,4.4-4.2,4.4
			C425.1,217.5,424,216.6,423.3,215.5z M430.1,213.1L430.1,213.1c0-2.3-1.6-3.7-3.4-3.7c-1.8,0-3.5,1.4-3.5,3.7l0,0
			c0,2.2,1.7,3.7,3.5,3.7C428.5,216.8,430.1,215.4,430.1,213.1z"/>
		<path class="st3" d="M433,213.1L433,213.1c0-2.4,1.9-4.6,4.4-4.6c2.5,0,4.4,2,4.4,4.4l0,0c0,2.4-1.9,4.4-4.4,4.4
			C434.8,217.5,433,215.5,433,213.1z M440.9,213.1L440.9,213.1c0-2.2-1.6-3.7-3.5-3.7c-2,0-3.5,1.7-3.5,3.7l0,0c0,2,1.6,3.7,3.5,3.7
			C439.5,216.8,440.9,215.1,440.9,213.1z"/>
		<path class="st3" d="M444.4,205.1h0.8v12.2h-0.8V205.1z"/>
		<path class="st3" d="M447.7,214.9L447.7,214.9c0-1.8,1.6-2.9,3.7-2.9c1.2,0,2,0.1,2.9,0.4V212c0-1.7-1.1-2.6-2.9-2.6
			c-1.1,0-1.9,0.2-2.6,0.7l-0.4-0.7c1-0.5,1.9-0.7,3-0.7c1.2,0,2,0.4,2.8,1c0.6,0.6,0.8,1.3,0.8,2.4v5.4h-0.8V216
			c-0.6,0.8-1.7,1.7-3.2,1.7C449.5,217.5,447.7,216.7,447.7,214.9z M454.3,214.2v-1c-0.7-0.2-1.7-0.4-2.9-0.4c-1.8,0-2.9,0.8-2.9,2
			l0,0c0,1.2,1.2,1.9,2.5,1.9C452.9,216.8,454.3,215.7,454.3,214.2z"/>
	</g>
</g>
<rect x="284.3" y="351.4" class="st3" width="1.9" height="1.9"/>
</svg>
