<?xml version="1.0" encoding="utf-8"?>
<!-- Generator: Adobe Illustrator 23.1.0, SVG Export Plug-In . SVG Version: 6.00 Build 0)  -->
<svg version="1.1" id="Layer_1" xmlns="http://www.w3.org/2000/svg" xmlns:xlink="http://www.w3.org/1999/xlink" x="0px" y="0px"
	 viewBox="0 0 500 500" style="enable-background:new 0 0 500 500;" xml:space="preserve">
<style type="text/css">
	.st0{fill:none;stroke:#FFFFFF;stroke-width:0.5;stroke-miterlimit:10;}
	.st1{fill:none;stroke:#FFFFFF;stroke-width:0.75;stroke-miterlimit:10;}
	.st2{fill:#FFFFFF;}
	.st3{fill:#A4DCE8;}
	.st4{fill:none;}
	.st5{fill:#B5B5B5;}
	.st6{enable-background:new    ;}
</style>
<line class="st0" x1="171.4" y1="105" x2="46" y2="105"/>
<line class="st0" x1="316.5" y1="105" x2="441.7" y2="105"/>
<line class="st0" x1="46" y1="410" x2="441.7" y2="410"/>
<g>
	<g>
		<g>
			<polyline class="st1" points="249.1,291.8 249.1,345.8 257,345.8 			"/>
			<g>
				<circle class="st2" cx="256.9" cy="345.8" r="2.1"/>
			</g>
		</g>
	</g>
	<path class="st3" d="M270.5,341.2l-2.2,0.7l-0.2-0.7l2.6-0.9h0.6v11.3h-0.8V341.2L270.5,341.2z"/>
	<path class="st3" d="M287.1,346.3L287.1,346.3c0-3.1,1.8-5.8,4.7-5.8c2.9,0,4.6,2.7,4.6,5.8l0,0c0,3.1-1.8,5.8-4.7,5.8
		C288.9,352.1,287.1,349.4,287.1,346.3z M295.5,346.3L295.5,346.3c0-2.6-1.5-5.1-3.8-5.1s-3.8,2.4-3.8,5l0,0c0,2.6,1.5,5,3.8,5
		S295.5,348.9,295.5,346.3z"/>
	<path class="st3" d="M274,346.3L274,346.3c0-3.1,1.8-5.8,4.7-5.8c2.9,0,4.6,2.7,4.6,5.8l0,0c0,3.1-1.8,5.8-4.7,5.8
		C275.8,352.1,274,349.4,274,346.3z M282.4,346.3L282.4,346.3c0-2.6-1.5-5.1-3.8-5.1s-3.8,2.4-3.8,5l0,0c0,2.6,1.5,5,3.8,5
		S282.4,348.9,282.4,346.3z"/>
	<path class="st3" d="M298.5,346.3L298.5,346.3c0-3.1,1.8-5.8,4.7-5.8c2.9,0,4.6,2.7,4.6,5.8l0,0c0,3.1-1.8,5.8-4.7,5.8
		C300.3,352.1,298.5,349.4,298.5,346.3z M306.9,346.3L306.9,346.3c0-2.6-1.5-5.1-3.8-5.1s-3.8,2.4-3.8,5l0,0c0,2.6,1.5,5,3.8,5
		S306.9,348.9,306.9,346.3z"/>
	<path class="st3" d="M309.8,346.3L309.8,346.3c0-3.1,1.8-5.8,4.7-5.8c2.9,0,4.6,2.7,4.6,5.8l0,0c0,3.1-1.8,5.8-4.7,5.8
		C311.6,352.1,309.8,349.4,309.8,346.3z M318.3,346.3L318.3,346.3c0-2.6-1.5-5.1-3.8-5.1s-3.8,2.4-3.8,5l0,0c0,2.6,1.5,5,3.8,5
		S318.3,348.9,318.3,346.3z"/>
	<path class="st3" d="M371.7,340.9h0.8v8.8l5.1-5.2h1L375,348l3.7,4.5h-1l-3.2-4l-2,2v2h-0.8V340.9L371.7,340.9z"/>
	<path class="st3" d="M380.7,344.4h0.8v1.5c0.5-0.8,1.3-1.6,2.7-1.6c1.4,0,2.3,0.8,2.8,1.8c0.5-0.9,1.4-1.8,2.9-1.8
		c1.9,0,3.1,1.4,3.1,3.4v4.9h-0.8v-4.9c0-1.8-0.9-2.8-2.4-2.8c-1.4,0-2.6,1.1-2.6,2.9v4.8h-0.8v-4.9c0-1.7-0.9-2.7-2.4-2.7
		s-2.6,1.3-2.6,2.9v4.7h-0.8L380.7,344.4L380.7,344.4z"/>
	<g>
		<title>Asset 3</title>
		<g>
			<g id="Layer_1-2_2_">
				<rect x="148.6" y="291.8" class="st4" width="100" height="33"/>
				<line class="st1" x1="149.1" y1="291.8" x2="149.1" y2="324.8"/>
				<line class="st0" x1="169.1" y1="303.8" x2="169.1" y2="324.8"/>
				<line class="st0" x1="159.1" y1="303.8" x2="159.1" y2="324.8"/>
				<line class="st0" x1="189.1" y1="303.8" x2="189.1" y2="324.8"/>
				<line class="st0" x1="179.1" y1="303.8" x2="179.1" y2="324.8"/>
				<line class="st0" x1="199.1" y1="303.8" x2="199.1" y2="324.8"/>
				<line class="st0" x1="209.1" y1="303.8" x2="209.1" y2="324.8"/>
				<line class="st0" x1="229.1" y1="303.8" x2="229.1" y2="324.8"/>
				<line class="st0" x1="219.1" y1="303.8" x2="219.1" y2="324.8"/>
				<line class="st0" x1="239" y1="303.8" x2="239" y2="324.8"/>
			</g>
		</g>
	</g>
	<path class="st3" d="M323.2,344.2h0.8v1.5c0.5-0.8,1.3-1.6,2.7-1.6c1.4,0,2.3,0.8,2.8,1.8c0.5-0.9,1.4-1.8,2.9-1.8
		c1.9,0,3.1,1.4,3.1,3.4v4.9h-0.8v-4.9c0-1.8-0.9-2.8-2.4-2.8c-1.4,0-2.6,1.1-2.6,2.9v4.8H329v-4.9c0-1.7-0.9-2.7-2.4-2.7
		s-2.6,1.3-2.6,2.9v4.7h-0.8V344.2L323.2,344.2z"/>
	<path class="st3" d="M345,340.9h0.9l-4.3,11.5h-0.9L345,340.9z"/>
	<path class="st3" d="M354.6,341.9l-2.2,0.7l-0.2-0.7l2.6-0.9h0.6v11.3h-0.8V341.9L354.6,341.9z"/>
	<path class="st3" d="M358.7,346.7L358.7,346.7c0-3.1,1.8-5.8,4.7-5.8c2.9,0,4.6,2.7,4.6,5.8l0,0c0,3.1-1.8,5.8-4.7,5.8
		C360.5,352.4,358.7,349.8,358.7,346.7z M367.1,346.7L367.1,346.7c0-2.6-1.5-5.1-3.8-5.1s-3.8,2.4-3.8,5l0,0c0,2.6,1.5,5,3.8,5
		S367.1,349.3,367.1,346.7z"/>
</g>
<g>
	<path class="st5" d="M193.9,114.5l1.1-1.2c2.5,2.3,4.7,3.3,8,3.3c3.4,0,5.7-1.9,5.7-4.4v-0.1c0-2.4-1.2-3.7-6.3-4.8
		c-5.4-1.1-7.6-2.9-7.6-6.3l0,0c0-3.3,3-5.9,7.2-5.9c3.3,0,5.4,0.9,7.7,2.7l-1.1,1.3c-2.1-1.8-4.2-2.5-6.7-2.5
		c-3.3,0-5.5,1.9-5.5,4.2v0.1c0,2.4,1.2,3.8,6.5,4.9c5.2,1.1,7.4,2.9,7.4,6.2v0.1c0,3.6-3.1,6.1-7.4,6.1
		C199.3,118.1,196.5,116.9,193.9,114.5z"/>
	<path class="st5" d="M215.8,95.4h1.7v14.7l14.3-14.7h2.3l-9.8,9.9l10.2,12.5h-2.2l-9.2-11.3l-5.6,5.6v5.7h-1.7V95.4z"/>
	<path class="st5" d="M247.2,95.2h1.6l10.4,22.6h-1.8l-2.8-6.3h-13.2l-2.8,6.3h-1.7L247.2,95.2z M253.8,110l-5.9-13l-5.9,13H253.8z"
		/>
	<path class="st5" d="M263.9,95.4h1.7v20.9h13.2v1.5H264V95.4H263.9z"/>
	<path class="st5" d="M292.3,95.2h1.6l10.4,22.6h-1.8l-2.8-6.3h-13.2l-2.8,6.3H282L292.3,95.2z M298.9,110L293,97l-5.9,13H298.9z"/>
</g>
<g>
	<rect x="139.2" y="201.7" class="st2" width="0.9" height="0.9"/>
	<g>
		<g>
			<rect x="95.2" y="202" class="st3" width="29.2" height="0.5"/>
			<g>
				<polygon class="st3" points="121.1,198.2 120.4,198.9 124,202.3 120.4,205.6 121.1,206.3 125.5,202.3 				"/>
			</g>
		</g>
	</g>
	<g>
		<g>
			<rect x="227.8" y="201.5" class="st3" width="30.6" height="0.5"/>
			<g>
				<polygon class="st3" points="231.1,205.9 231.8,205.1 228.2,201.8 231.8,198.4 231.1,197.7 226.7,201.8 				"/>
			</g>
		</g>
	</g>
	<g class="st6">
		<path class="st3" d="M49.8,196.8l-1.9,0.6l-0.2-0.6l2.2-0.8h0.6v9.9h-0.7C49.8,206,49.8,196.8,49.8,196.8z"/>
		<path class="st3" d="M57.5,198.8h0.7v1.6c0.6-0.9,1.5-1.8,2.9-1.8c1.7,0,3.5,1.4,3.5,3.7l0,0c0,2.3-1.8,3.7-3.5,3.7
			c-1.4,0-2.4-0.8-2.9-1.7v3.8h-0.7V198.8z M63.8,202.4L63.8,202.4c0-1.9-1.3-3.1-2.8-3.1s-2.9,1.2-2.9,3.1l0,0
			c0,1.8,1.4,3.1,2.9,3.1C62.6,205.5,63.8,204.3,63.8,202.4z"/>
		<path class="st3" d="M66.7,196h0.9v0.9h-0.9V196z M66.8,198.8h0.7v7.1h-0.7V198.8z"/>
		<path class="st3" d="M72.9,202.8l-2.5,3.2h-0.8l2.9-3.6l-2.8-3.5h0.9l2.4,3l2.4-3h0.8l-2.8,3.5l2.9,3.7h-0.9L72.9,202.8z"/>
		<path class="st3" d="M77.2,202.4L77.2,202.4c0-2.1,1.5-3.8,3.4-3.8c2,0,3.3,1.6,3.3,3.7c0,0.1,0,0.2,0,0.3h-6
			c0.1,1.8,1.4,2.8,2.8,2.8c1.1,0,1.9-0.5,2.5-1.1l0.5,0.4c-0.7,0.8-1.6,1.3-3,1.3C78.8,206.1,77.2,204.6,77.2,202.4z M83.1,202
			c-0.1-1.4-0.9-2.8-2.6-2.8c-1.4,0-2.5,1.2-2.6,2.8H83.1z"/>
		<path class="st3" d="M86,195.7h0.7v10.2H86V195.7z"/>
	</g>
	<path class="st2" d="M151.5,199.8h8.2v0.9h-8.2V199.8z M151.5,203.8h8.2v0.9h-8.2V203.8z"/>
	<g class="st6">
		<path class="st2" d="M169.5,197.3l-2.2,0.7l-0.2-0.7l2.6-0.9h0.6v11.3h-0.8L169.5,197.3L169.5,197.3z"/>
		<path class="st2" d="M173,202.2L173,202.2c0-3.1,1.8-5.8,4.7-5.8s4.6,2.7,4.6,5.8l0,0c0,3.1-1.8,5.8-4.7,5.8
			C174.8,208,173,205.3,173,202.2z M181.4,202.2L181.4,202.2c0-2.6-1.5-5.1-3.8-5.1s-3.8,2.4-3.8,5l0,0c0,2.6,1.5,5,3.8,5
			S181.4,204.8,181.4,202.2z"/>
		<path class="st2" d="M184.4,202.2L184.4,202.2c0-3.1,1.8-5.8,4.7-5.8c2.8,0,4.6,2.7,4.6,5.8l0,0c0,3.1-1.8,5.8-4.7,5.8
			S184.4,205.3,184.4,202.2z M192.8,202.2L192.8,202.2c0-2.6-1.5-5.1-3.8-5.1s-3.8,2.4-3.8,5l0,0c0,2.6,1.5,5,3.8,5
			S192.8,204.8,192.8,202.2z"/>
		<path class="st2" d="M197.9,199.6h0.8v1.5c0.5-0.8,1.3-1.6,2.7-1.6s2.3,0.8,2.8,1.8c0.5-0.9,1.4-1.8,2.9-1.8
			c1.9,0,3.1,1.4,3.1,3.4v4.9h-0.8v-4.9c0-1.8-0.9-2.8-2.4-2.8c-1.4,0-2.6,1.1-2.6,2.9v4.8h-0.8v-4.9c0-1.7-0.9-2.7-2.4-2.7
			s-2.6,1.3-2.6,2.9v4.7h-0.7V199.6L197.9,199.6z"/>
	</g>
	<g>
		<path class="st3" d="M279.7,195l0.5-0.5c1.1,1,2.1,1.5,3.5,1.5c1.5,0,2.5-0.8,2.5-1.9l0,0c0-1-0.5-1.6-2.8-2.1
			c-2.4-0.5-3.3-1.3-3.3-2.8l0,0c0-1.5,1.3-2.6,3.2-2.6c1.4,0,2.4,0.4,3.4,1.2l-0.5,0.6c-0.9-0.8-1.8-1.1-2.9-1.1
			c-1.4,0-2.4,0.8-2.4,1.8l0,0c0,1,0.5,1.7,2.9,2.1c2.3,0.5,3.2,1.3,3.2,2.7l0,0c0,1.6-1.4,2.7-3.3,2.7
			C282.1,196.6,280.9,196.1,279.7,195z"/>
		<path class="st3" d="M288.6,192.9L288.6,192.9c0-2.1,1.5-3.8,3.4-3.8c2,0,3.3,1.6,3.3,3.7c0,0.1,0,0.2,0,0.3h-5.9
			c0.1,1.8,1.4,2.8,2.8,2.8c1.1,0,1.9-0.5,2.5-1.1l0.5,0.4c-0.7,0.8-1.6,1.3-3,1.3C290.3,196.6,288.6,195.1,288.6,192.9z
			 M294.6,192.5c-0.1-1.4-0.9-2.8-2.6-2.8c-1.4,0-2.5,1.2-2.6,2.8H294.6z"/>
		<path class="st3" d="M297.3,186.2h0.7v7.7l4.4-4.6h0.9l-3.1,3.2l3.2,4h-0.9l-2.8-3.5l-1.7,1.8v1.7h-0.7V186.2z"/>
		<path class="st3" d="M305.2,186.5h0.9v0.9h-0.9V186.5z M305.3,189.3h0.7v7.1h-0.7V189.3z"/>
		<path class="st3" d="M309,194.6v-4.7h-1v-0.6h1V187h0.7v2.3h2.5v0.6h-2.5v4.6c0,1,0.6,1.4,1.4,1.4c0.4,0,0.6-0.1,1.1-0.3v0.6
			c-0.4,0.2-0.7,0.3-1.2,0.3C309.9,196.6,309,196,309,194.6z"/>
		<path class="st3" d="M313.7,194.4L313.7,194.4c0-1.5,1.3-2.4,3.1-2.4c1,0,1.7,0.1,2.4,0.3V192c0-1.4-0.9-2.2-2.4-2.2
			c-0.9,0-1.6,0.2-2.2,0.6l-0.3-0.6c0.8-0.4,1.6-0.6,2.5-0.6c1,0,1.7,0.3,2.3,0.8c0.5,0.5,0.7,1.1,0.7,2v4.5h-0.7v-1.2
			c-0.5,0.7-1.4,1.4-2.7,1.4C315.1,196.6,313.7,195.9,313.7,194.4z M319.2,193.8V193c-0.6-0.2-1.4-0.3-2.4-0.3
			c-1.5,0-2.4,0.7-2.4,1.7l0,0c0,1,1,1.6,2.1,1.6C317.9,196,319.2,195.1,319.2,193.8z"/>
		<path class="st3" d="M322.3,189.3h0.7v2c0.6-1.3,1.8-2.2,3.2-2.1v0.8h-0.1c-1.7,0-3.1,1.2-3.1,3.6v2.9h-0.7V189.3z"/>
		<path class="st3" d="M332.1,189.3h0.7v1.6c0.6-0.9,1.5-1.8,2.9-1.8c1.7,0,3.5,1.4,3.5,3.7l0,0c0,2.3-1.8,3.7-3.5,3.7
			c-1.4,0-2.4-0.8-2.9-1.7v3.8h-0.7V189.3z M338.4,192.9L338.4,192.9c0-1.9-1.3-3.1-2.8-3.1s-2.9,1.2-2.9,3.1l0,0
			c0,1.8,1.4,3.1,2.9,3.1C337.2,196,338.4,194.8,338.4,192.9z"/>
		<path class="st3" d="M340.7,194.4L340.7,194.4c0-1.5,1.3-2.4,3.1-2.4c1,0,1.7,0.1,2.4,0.3V192c0-1.4-0.9-2.2-2.4-2.2
			c-0.9,0-1.6,0.2-2.2,0.6l-0.3-0.6c0.8-0.4,1.6-0.6,2.5-0.6c1,0,1.7,0.3,2.3,0.8c0.5,0.5,0.7,1.1,0.7,2v4.5h-0.7v-1.2
			c-0.5,0.7-1.4,1.4-2.7,1.4C342.2,196.6,340.7,195.9,340.7,194.4z M346.2,193.8V193c-0.6-0.2-1.4-0.3-2.4-0.3
			c-1.5,0-2.4,0.7-2.4,1.7l0,0c0,1,1,1.6,2.1,1.6C345,196,346.2,195.1,346.2,193.8z"/>
		<path class="st3" d="M349.4,189.3h0.7v1.3c0.5-0.8,1.3-1.5,2.6-1.5c1.8,0,2.9,1.2,2.9,2.9v4.4h-0.7v-4.2c0-1.5-0.8-2.4-2.3-2.4
			c-1.4,0-2.5,1.1-2.5,2.5v4.1h-0.7V189.3z"/>
		<path class="st3" d="M356.6,198.7v-0.6c0.2,0,0.4,0,0.6,0c0.5,0,0.9-0.3,0.9-1v-7.8h0.7v7.8c0,1.1-0.6,1.7-1.5,1.7
			C357,198.7,356.8,198.7,356.6,198.7z M357.9,186.5h0.9v0.9h-0.9V186.5z"/>
		<path class="st3" d="M360.8,194.4L360.8,194.4c0-1.5,1.3-2.4,3.1-2.4c1,0,1.7,0.1,2.4,0.3V192c0-1.4-0.9-2.2-2.4-2.2
			c-0.9,0-1.6,0.2-2.2,0.6l-0.3-0.6c0.8-0.4,1.6-0.6,2.5-0.6c1,0,1.7,0.3,2.3,0.8c0.5,0.5,0.7,1.1,0.7,2v4.5h-0.7v-1.2
			c-0.5,0.7-1.4,1.4-2.7,1.4C362.3,196.6,360.8,195.9,360.8,194.4z M366.3,193.8V193c-0.6-0.2-1.4-0.3-2.4-0.3
			c-1.5,0-2.4,0.7-2.4,1.7l0,0c0,1,1,1.6,2.1,1.6C365.1,196,366.3,195.1,366.3,193.8z"/>
		<path class="st3" d="M369.5,189.3h0.7v1.3c0.5-0.8,1.3-1.5,2.6-1.5c1.8,0,2.9,1.2,2.9,2.9v4.4h-0.8v-4.2c0-1.5-0.8-2.4-2.3-2.4
			c-1.4,0-2.5,1.1-2.5,2.5v4.1h-0.7v-7.1H369.5z"/>
		<path class="st3" d="M377.9,197.6l0.4-0.6c0.9,0.7,1.8,1,2.9,1c1.6,0,2.8-0.9,2.8-2.8v-1c-0.6,0.9-1.6,1.7-3,1.7
			c-1.7,0-3.4-1.3-3.4-3.4l0,0c0-2.1,1.7-3.4,3.4-3.4c1.4,0,2.4,0.8,3,1.6v-1.4h0.7v6c0,1-0.3,1.8-0.9,2.4c-0.6,0.6-1.5,1-2.6,1
			C380,198.7,378.9,198.4,377.9,197.6z M384,192.5L384,192.5c0-1.7-1.5-2.7-3-2.7s-2.8,1-2.8,2.7l0,0c0,1.6,1.3,2.7,2.8,2.7
			C382.6,195.3,384,194.2,384,192.5z"/>
		<path class="st3" d="M391.6,186.2h0.7v10.2h-0.7V186.2z"/>
		<path class="st3" d="M394.4,194.4L394.4,194.4c0-1.5,1.3-2.4,3.1-2.4c1,0,1.7,0.1,2.4,0.3V192c0-1.4-0.9-2.2-2.4-2.2
			c-0.9,0-1.6,0.2-2.2,0.6l-0.3-0.6c0.8-0.4,1.6-0.6,2.5-0.6c1,0,1.7,0.3,2.3,0.8c0.5,0.5,0.7,1.1,0.7,2v4.5h-0.6v-1.2
			c-0.5,0.7-1.4,1.4-2.7,1.4C395.8,196.6,394.4,195.9,394.4,194.4z M399.9,193.8V193c-0.6-0.2-1.4-0.3-2.4-0.3
			c-1.5,0-2.4,0.7-2.4,1.7l0,0c0,1,1,1.6,2.1,1.6C398.6,196,399.9,195.1,399.9,193.8z"/>
		<path class="st3" d="M403,189.3h0.7v1.6c0.6-0.9,1.5-1.8,2.9-1.8c1.7,0,3.5,1.4,3.5,3.7l0,0c0,2.3-1.8,3.7-3.5,3.7
			c-1.4,0-2.4-0.8-2.9-1.7v3.8H403V189.3z M409.4,192.9L409.4,192.9c0-1.9-1.3-3.1-2.8-3.1s-2.9,1.2-2.9,3.1l0,0
			c0,1.8,1.4,3.1,2.9,3.1S409.4,194.8,409.4,192.9z"/>
		<path class="st3" d="M411.7,194.4L411.7,194.4c0-1.5,1.3-2.4,3.1-2.4c1,0,1.7,0.1,2.4,0.3V192c0-1.4-0.9-2.2-2.4-2.2
			c-0.9,0-1.6,0.2-2.2,0.6l-0.3-0.6c0.8-0.4,1.6-0.6,2.5-0.6c1,0,1.7,0.3,2.3,0.8c0.5,0.5,0.7,1.1,0.7,2v4.5h-0.7v-1.2
			c-0.5,0.7-1.4,1.4-2.7,1.4C413.1,196.6,411.7,195.9,411.7,194.4z M417.2,193.8V193c-0.6-0.2-1.4-0.3-2.4-0.3
			c-1.5,0-2.4,0.7-2.4,1.7l0,0c0,1,1,1.6,2.1,1.6C415.9,196,417.2,195.1,417.2,193.8z"/>
		<path class="st3" d="M420.3,189.3h0.7v1.3c0.5-0.8,1.3-1.5,2.6-1.5c1.8,0,2.9,1.2,2.9,2.9v4.4h-0.7v-4.2c0-1.5-0.8-2.4-2.3-2.4
			c-1.4,0-2.5,1.1-2.5,2.5v4.1h-0.7V189.3z"/>
		<path class="st3" d="M428.7,197.6l0.4-0.6c0.9,0.7,1.8,1,2.9,1c1.6,0,2.8-0.9,2.8-2.8v-1c-0.6,0.9-1.6,1.7-3,1.7
			c-1.7,0-3.4-1.3-3.4-3.4l0,0c0-2.1,1.7-3.4,3.4-3.4c1.4,0,2.4,0.8,3,1.6v-1.4h0.7v6c0,1-0.3,1.8-0.9,2.4c-0.6,0.6-1.5,1-2.6,1
			C430.8,198.7,429.7,198.4,428.7,197.6z M434.9,192.5L434.9,192.5c0-1.7-1.5-2.7-3-2.7s-2.8,1-2.8,2.7l0,0c0,1.6,1.3,2.7,2.8,2.7
			C433.4,195.3,434.9,194.2,434.9,192.5z"/>
		<path class="st3" d="M437.5,194.4L437.5,194.4c0-1.5,1.3-2.4,3.1-2.4c1,0,1.7,0.1,2.4,0.3V192c0-1.4-0.9-2.2-2.4-2.2
			c-0.9,0-1.6,0.2-2.2,0.6l-0.3-0.6c0.8-0.4,1.6-0.6,2.5-0.6c1,0,1.7,0.3,2.3,0.8c0.5,0.5,0.7,1.1,0.7,2v4.5h-0.7v-1.2
			c-0.5,0.7-1.4,1.4-2.7,1.4C438.9,196.6,437.5,195.9,437.5,194.4z M443,193.8V193c-0.6-0.2-1.4-0.3-2.4-0.3c-1.5,0-2.4,0.7-2.4,1.7
			l0,0c0,1,1,1.6,2.1,1.6C441.8,196,443,195.1,443,193.8z"/>
		<path class="st3" d="M446.1,189.3h0.7v1.3c0.5-0.8,1.3-1.5,2.6-1.5c1.8,0,2.9,1.2,2.9,2.9v4.4h-0.7v-4.2c0-1.5-0.8-2.4-2.3-2.4
			c-1.4,0-2.5,1.1-2.5,2.5v4.1h-0.7V189.3z"/>
		<path class="st3" d="M279.6,212.4l0.4-0.5c0.8,0.6,1.7,0.9,2.6,0.9c1,0,1.7-0.5,1.7-1.4l0,0c0-0.8-0.9-1.1-1.9-1.4
			c-1.2-0.3-2.5-0.7-2.5-2l0,0c0-1.1,1-2,2.4-2c0.9,0,1.8,0.3,2.5,0.8l-0.4,0.6c-0.7-0.4-1.4-0.7-2.2-0.7c-1,0-1.6,0.5-1.6,1.2l0,0
			c0,0.8,1,1.1,2,1.4c1.1,0.3,2.4,0.7,2.4,2l0,0c0,1.3-1.1,2.1-2.5,2.1C281.5,213.4,280.3,213,279.6,212.4z"/>
		<path class="st3" d="M286.6,209.7L286.6,209.7c0-2.1,1.5-3.8,3.4-3.8c2,0,3.3,1.6,3.3,3.7c0,0.1,0,0.2,0,0.3h-5.9
			c0.1,1.8,1.4,2.8,2.8,2.8c1.1,0,1.9-0.5,2.5-1.1l0.5,0.4c-0.7,0.8-1.6,1.3-3,1.3C288.3,213.4,286.6,211.9,286.6,209.7z
			 M292.6,209.3c-0.1-1.4-0.9-2.8-2.6-2.8c-1.4,0-2.5,1.2-2.6,2.8H292.6z"/>
		<path class="st3" d="M295.3,206.1h0.7v1.6c0.6-0.9,1.5-1.8,2.9-1.8c1.7,0,3.5,1.4,3.5,3.7l0,0c0,2.3-1.8,3.7-3.5,3.7
			c-1.4,0-2.4-0.8-2.9-1.7v3.8h-0.7V206.1z M301.7,209.7L301.7,209.7c0-1.9-1.3-3.1-2.8-3.1s-2.9,1.2-2.9,3.1l0,0
			c0,1.8,1.4,3.1,2.9,3.1S301.7,211.6,301.7,209.7z"/>
		<path class="st3" d="M304,211.2L304,211.2c0-1.5,1.3-2.4,3.1-2.4c1,0,1.7,0.1,2.4,0.3v-0.3c0-1.4-0.9-2.2-2.4-2.2
			c-0.9,0-1.6,0.2-2.2,0.6l-0.3-0.6c0.8-0.4,1.6-0.6,2.5-0.6c1,0,1.7,0.3,2.3,0.8c0.5,0.5,0.7,1.1,0.7,2v4.5h-0.7v-1.2
			c-0.5,0.7-1.4,1.4-2.7,1.4C305.4,213.4,304,212.7,304,211.2z M309.5,210.6v-0.8c-0.6-0.2-1.4-0.3-2.4-0.3c-1.5,0-2.4,0.7-2.4,1.7
			l0,0c0,1,1,1.6,2.1,1.6C308.2,212.8,309.5,211.9,309.5,210.6z"/>
		<path class="st3" d="M312.6,203h0.7v7.7l4.4-4.6h0.9l-3.1,3.2l3.2,4h-0.9l-2.8-3.5l-1.7,1.8v1.7h-0.7V203z"/>
		<path class="st3" d="M325.3,211.7v1.5h-0.7V203h0.7v4.7c0.6-0.9,1.5-1.8,2.9-1.8c1.7,0,3.5,1.4,3.5,3.7l0,0c0,2.3-1.8,3.7-3.5,3.7
			C326.8,213.4,325.9,212.6,325.3,211.7z M331,209.7L331,209.7c0-1.9-1.3-3.1-2.8-3.1s-2.9,1.2-2.9,3.1l0,0c0,1.8,1.4,3.1,2.9,3.1
			C329.7,212.8,331,211.6,331,209.7z"/>
		<path class="st3" d="M333.4,209.7L333.4,209.7c0-2,1.6-3.8,3.7-3.8s3.7,1.7,3.7,3.7l0,0c0,2-1.6,3.7-3.7,3.7
			C334.9,213.4,333.4,211.7,333.4,209.7z M340,209.7L340,209.7c0-1.8-1.3-3.1-2.9-3.1c-1.7,0-2.9,1.4-2.9,3.1l0,0
			c0,1.7,1.3,3.1,2.9,3.1C338.8,212.8,340,211.4,340,209.7z"/>
		<path class="st3" d="M342.9,203h0.7v10.2h-0.7V203z"/>
		<path class="st3" d="M345.7,211.2L345.7,211.2c0-1.5,1.3-2.4,3.1-2.4c1,0,1.7,0.1,2.4,0.3v-0.3c0-1.4-0.9-2.2-2.4-2.2
			c-0.9,0-1.6,0.2-2.2,0.6l-0.3-0.6c0.8-0.4,1.6-0.6,2.5-0.6c1,0,1.7,0.3,2.3,0.8c0.5,0.5,0.7,1.1,0.7,2v4.5h-0.7v-1.2
			c-0.5,0.7-1.4,1.4-2.7,1.4C347.2,213.4,345.7,212.7,345.7,211.2z M351.2,210.6v-0.8c-0.6-0.2-1.4-0.3-2.4-0.3
			c-1.5,0-2.4,0.7-2.4,1.7l0,0c0,1,1,1.6,2.1,1.6C350,212.8,351.2,211.9,351.2,210.6z"/>
	</g>
</g>
<rect x="284.2" y="350.5" class="st3" width="1.6" height="1.6"/>
</svg>
