<?xml version="1.0" encoding="utf-8"?>
<!-- Generator: Adobe Illustrator 23.1.0, SVG Export Plug-In . SVG Version: 6.00 Build 0)  -->
<svg version="1.1" id="Layer_1" xmlns="http://www.w3.org/2000/svg" xmlns:xlink="http://www.w3.org/1999/xlink" x="0px" y="0px"
	 viewBox="0 0 500 500" style="enable-background:new 0 0 500 500;" xml:space="preserve">
<style type="text/css">
	.st0{enable-background:new    ;}
	.st1{fill:#B5B5B5;}
	.st2{fill:none;stroke:#FFFFFF;stroke-width:0.5;stroke-miterlimit:10;}
	.st3{fill:none;stroke:#FFFFFF;stroke-width:0.75;stroke-miterlimit:10;}
	.st4{fill:#FFFFFF;}
	.st5{fill:none;}
	.st6{fill:#A4DCE8;}
</style>
<g>
	<g class="st0">
		<path class="st1" d="M185.7,106.5l1.3-1.4c3,2.8,5.6,4,9.6,4c4.1,0,6.8-2.3,6.8-5.3v-0.1c0-2.9-1.4-4.4-7.6-5.8
			c-6.5-1.3-9.1-3.5-9.1-7.6v-0.1c0-4,3.6-7.1,8.6-7.1c4,0,6.5,1.1,9.2,3.2l-1.3,1.6c-2.5-2.2-5-3-8-3c-4,0-6.6,2.3-6.6,5V90
			c0,2.9,1.4,4.6,7.8,5.9c6.2,1.3,8.9,3.5,8.9,7.4v0.1c0,4.3-3.7,7.3-8.9,7.3C192.2,110.8,188.9,109.3,185.7,106.5z"/>
		<path class="st1" d="M210.8,97.1L210.8,97.1c0-7.7,5.6-13.9,13.4-13.9c4.8,0,7.7,1.8,10.4,4.3l-1.4,1.4c-2.4-2.3-5-4-9.1-4
			c-6.5,0-11.3,5.3-11.3,12v0.1c0,6.8,4.9,12.1,11.4,12.1c3.8,0,6.5-1.4,9.2-4.2l1.3,1.3c-2.9,2.8-5.9,4.7-10.7,4.7
			C216.5,110.9,210.8,104.8,210.8,97.1z"/>
		<path class="st1" d="M250.5,83.3h1.9l12.5,27.1h-2.2l-3.4-7.6h-15.8l-3.4,7.6h-2L250.5,83.3z M258.5,101.1l-7.1-15.6l-7.1,15.6
			H258.5z"/>
		<path class="st1" d="M270.7,83.6h2v25.1h15.8v1.8h-17.8V83.6H270.7z"/>
		<path class="st1" d="M294.4,83.6h19.1v1.8h-17.2v10.6h15.4v1.8h-15.4v10.8h17.3v1.8h-19.3L294.4,83.6L294.4,83.6z"/>
	</g>
	<line class="st2" x1="166.1" y1="97.1" x2="36" y2="97.1"/>
	<line class="st2" x1="333.2" y1="97.1" x2="464" y2="97.1"/>
</g>
<line class="st2" x1="37.9" y1="410" x2="462.1" y2="410"/>
<g>
	<g>
		<g>
			<polyline class="st3" points="241.2,292.4 241.2,346.4 249.1,346.4 			"/>
			<g>
				<circle class="st4" cx="249" cy="346.4" r="2.1"/>
			</g>
		</g>
	</g>
	<g>
		<title>Asset 3</title>
		<g>
			<g id="Layer_1-2_2_">
				<rect x="140.7" y="292.4" class="st5" width="100" height="33"/>
				<line class="st3" x1="141.2" y1="292.4" x2="141.2" y2="325.4"/>
				<line class="st2" x1="161.2" y1="304.4" x2="161.2" y2="325.4"/>
				<line class="st2" x1="151.2" y1="304.4" x2="151.2" y2="325.4"/>
				<line class="st2" x1="181.2" y1="304.4" x2="181.2" y2="325.4"/>
				<line class="st2" x1="171.2" y1="304.4" x2="171.2" y2="325.4"/>
				<line class="st2" x1="191.2" y1="304.4" x2="191.2" y2="325.4"/>
				<line class="st2" x1="201.2" y1="304.4" x2="201.2" y2="325.4"/>
				<line class="st2" x1="221.2" y1="304.4" x2="221.2" y2="325.4"/>
				<line class="st2" x1="211.2" y1="304.4" x2="211.2" y2="325.4"/>
				<line class="st2" x1="231.1" y1="304.4" x2="231.1" y2="325.4"/>
			</g>
		</g>
	</g>
	<g>
		<path class="st6" d="M261.6,342.7l-2.6,0.8l-0.2-0.8l3.1-1.1h0.7v13.6h-1V342.7L261.6,342.7z"/>
		<path class="st6" d="M277.9,356.7c0.8-0.5,1.1-0.8,1.1-1.6h-0.5v-1.7h1.3v1.4c0,1.2-0.5,1.8-1.6,2.3L277.9,356.7z"/>
		<path class="st6" d="M281.5,348.8L281.5,348.8c0-3.7,2.2-7,5.6-7s5.5,3.2,5.5,7l0,0c0,3.7-2.2,7-5.6,7
			C283.6,355.7,281.5,352.5,281.5,348.8z M291.6,348.8L291.6,348.8c0-3.1-1.8-6.1-4.6-6.1s-4.6,2.9-4.6,6l0,0c0,3.1,1.8,6,4.6,6
			S291.6,351.9,291.6,348.8z"/>
		<path class="st6" d="M265.8,348.8L265.8,348.8c0-3.7,2.2-7,5.6-7s5.5,3.2,5.5,7l0,0c0,3.7-2.2,7-5.6,7
			C267.9,355.7,265.8,352.5,265.8,348.8z M275.8,348.8L275.8,348.8c0-3.1-1.8-6.1-4.6-6.1s-4.6,2.9-4.6,6l0,0c0,3.1,1.8,6,4.6,6
			S275.8,351.9,275.8,348.8z"/>
		<path class="st6" d="M295.2,348.8L295.2,348.8c0-3.7,2.2-7,5.6-7s5.5,3.2,5.5,7l0,0c0,3.7-2.2,7-5.6,7
			C297.3,355.7,295.2,352.5,295.2,348.8z M305.2,348.8L305.2,348.8c0-3.1-1.8-6.1-4.6-6.1s-4.6,2.9-4.6,6l0,0c0,3.1,1.8,6,4.6,6
			S305.2,351.9,305.2,348.8z"/>
		<path class="st6" d="M308.7,348.8L308.7,348.8c0-3.7,2.2-7,5.6-7c3.5,0,5.5,3.2,5.5,7l0,0c0,3.7-2.2,7-5.6,7
			C310.9,355.7,308.7,352.5,308.7,348.8z M318.9,348.8L318.9,348.8c0-3.1-1.8-6.1-4.6-6.1s-4.6,2.9-4.6,6l0,0c0,3.1,1.8,6,4.6,6
			S318.9,351.9,318.9,348.8z"/>
		<path class="st6" d="M383,342.3h1v10.6l6.1-6.2h1.2l-4.3,4.2l4.4,5.4h-1.2l-3.8-4.8l-2.4,2.4v2.4h-1V342.3L383,342.3z"/>
		<path class="st6" d="M393.8,346.5h1v1.8c0.6-1,1.6-1.9,3.2-1.9c1.7,0,2.8,1,3.4,2.2c0.6-1.1,1.7-2.2,3.5-2.2
			c2.3,0,3.7,1.7,3.7,4.1v5.9h-1v-5.9c0-2.2-1.1-3.4-2.9-3.4c-1.7,0-3.1,1.3-3.1,3.5v5.8h-1v-5.9c0-2-1.1-3.2-2.9-3.2
			c-1.8,0-3.1,1.6-3.1,3.5v5.6h-1L393.8,346.5L393.8,346.5z"/>
		<path class="st6" d="M324.8,346.3h1v1.8c0.6-1,1.6-1.9,3.2-1.9c1.7,0,2.8,1,3.4,2.2c0.6-1.1,1.7-2.2,3.5-2.2
			c2.3,0,3.7,1.7,3.7,4.1v5.9h-1v-5.9c0-2.2-1.1-3.4-2.9-3.4c-1.7,0-3.1,1.3-3.1,3.5v5.8h-0.8v-5.9c0-2-1.1-3.2-2.9-3.2
			c-1.8,0-3.1,1.6-3.1,3.5v5.6h-1V346.3L324.8,346.3z"/>
		<path class="st6" d="M351,342.3h1.1l-5.2,13.8h-1.1L351,342.3z"/>
		<path class="st6" d="M362.5,343.5l-2.6,0.8l-0.2-0.8l3.1-1.1h0.7V356h-1V343.5L362.5,343.5z"/>
		<path class="st6" d="M367.4,349.3L367.4,349.3c0-3.7,2.2-7,5.6-7s5.5,3.2,5.5,7l0,0c0,3.7-2.2,7-5.6,7
			C369.6,356.1,367.4,353,367.4,349.3z M377.5,349.3L377.5,349.3c0-3.1-1.8-6.1-4.6-6.1s-4.6,2.9-4.6,6l0,0c0,3.1,1.8,6,4.6,6
			S377.5,352.4,377.5,349.3z"/>
	</g>
</g>
<g>
	<rect x="145.9" y="211.2" class="st4" width="0.9" height="0.9"/>
	<g>
		<g>
			<rect x="101.9" y="211.5" class="st6" width="29.2" height="0.5"/>
			<g>
				<polygon class="st6" points="127.8,207.7 127.1,208.4 130.7,211.8 127.1,215.1 127.8,215.8 132.2,211.8 				"/>
			</g>
		</g>
	</g>
	<g>
		<g>
			<rect x="255.6" y="211.8" class="st6" width="30.6" height="0.5"/>
			<g>
				<polygon class="st6" points="258.9,216.2 259.6,215.4 256,212.1 259.6,208.7 258.9,208 254.5,212.1 				"/>
			</g>
		</g>
	</g>
	<g class="st0">
		<path class="st6" d="M43.7,204.9l-2.3,0.7l-0.2-0.7l2.6-1h0.7v11.9h-0.8C43.7,215.9,43.7,204.9,43.7,204.9z"/>
		<path class="st6" d="M52.9,207.3h0.8v1.9c0.7-1.1,1.8-2.2,3.5-2.2c2,0,4.2,1.7,4.2,4.4l0,0c0,2.8-2.2,4.4-4.2,4.4
			c-1.7,0-2.9-1-3.5-2v4.6h-0.8V207.3z M60.5,211.6L60.5,211.6c0-2.3-1.6-3.7-3.4-3.7c-1.8,0-3.5,1.4-3.5,3.7l0,0
			c0,2.2,1.7,3.7,3.5,3.7C59.1,215.3,60.5,213.9,60.5,211.6z"/>
		<path class="st6" d="M64,203.9h1.1v1.1H64V203.9z M64.1,207.3h0.8v8.5h-0.8V207.3z"/>
		<path class="st6" d="M71.4,212.1l-3,3.8h-1l3.5-4.3l-3.4-4.2h1.1l2.9,3.6l2.9-3.6h1l-3.4,4.2l3.5,4.4h-1.1L71.4,212.1z"/>
		<path class="st6" d="M76.6,211.6L76.6,211.6c0-2.5,1.8-4.6,4.1-4.6c2.4,0,4,1.9,4,4.4c0,0.1,0,0.2,0,0.4h-7.2
			c0.1,2.2,1.7,3.4,3.4,3.4c1.3,0,2.3-0.6,3-1.3l0.6,0.5c-0.8,1-1.9,1.6-3.6,1.6C78.5,216,76.6,214.2,76.6,211.6z M83.7,211.1
			c-0.1-1.7-1.1-3.4-3.1-3.4c-1.7,0-3,1.4-3.1,3.4H83.7z"/>
		<path class="st6" d="M87.1,203.6H88v12.2h-0.8V203.6z"/>
	</g>
	<path class="st4" d="M165.7,208.5h9.8v1.1h-9.8V208.5z M165.7,213.3h9.8v1.1h-9.8V213.3z"/>
	<g class="st0">
		<path class="st4" d="M191.2,206.1l-2.6,0.8l-0.2-0.8l3.1-1.1h0.7v13.6h-1L191.2,206.1L191.2,206.1z"/>
		<path class="st4" d="M195.4,212L195.4,212c0-3.7,2.2-7,5.6-7s5.5,3.2,5.5,7l0,0c0,3.7-2.2,7-5.6,7
			C197.5,218.9,195.4,215.7,195.4,212z M205.5,212L205.5,212c0-3.1-1.8-6.1-4.6-6.1c-2.8,0-4.6,2.9-4.6,6l0,0c0,3.1,1.8,6,4.6,6
			C203.7,217.8,205.5,215.1,205.5,212z"/>
		<path class="st4" d="M209.1,212L209.1,212c0-3.7,2.2-7,5.6-7c3.4,0,5.5,3.2,5.5,7l0,0c0,3.7-2.2,7-5.6,7
			C211.1,218.9,209.1,215.7,209.1,212z M219.1,212L219.1,212c0-3.1-1.8-6.1-4.6-6.1c-2.8,0-4.6,2.9-4.6,6l0,0c0,3.1,1.8,6,4.6,6
			C217.3,217.8,219.1,215.1,219.1,212z"/>
		<path class="st4" d="M225.3,208.8h1v1.8c0.6-1,1.6-1.9,3.2-1.9s2.8,1,3.4,2.2c0.6-1.1,1.7-2.2,3.5-2.2c2.3,0,3.7,1.7,3.7,4.1v5.9
			h-1v-5.9c0-2.2-1.1-3.4-2.9-3.4c-1.7,0-3.1,1.3-3.1,3.5v5.8h-1v-5.9c0-2-1.1-3.2-2.9-3.2c-1.8,0-3.1,1.6-3.1,3.5v5.6h-0.8V208.8
			L225.3,208.8z"/>
	</g>
	<g class="st0">
		<path class="st6" d="M300.3,195.6h4.9c1.4,0,2.6,0.5,3.4,1.2c0.6,0.6,0.8,1.3,0.8,2.2l0,0c0,1.9-1.4,3.1-3.5,3.4l3.8,5h-1.1
			l-3.7-4.9h-3.8v4.9h-0.8V195.6z M305.1,201.7c1.9,0,3.5-1,3.5-2.6l0,0c0-1.6-1.2-2.5-3.4-2.5h-4v5.3h3.8V201.7z"/>
		<path class="st6" d="M311.5,203.2L311.5,203.2c0-2.4,1.9-4.6,4.4-4.6c2.5,0,4.4,2,4.4,4.4l0,0c0,2.4-1.9,4.4-4.4,4.4
			C313.4,207.6,311.5,205.6,311.5,203.2z M319.4,203.2L319.4,203.2c0-2.2-1.6-3.7-3.5-3.7c-2,0-3.5,1.7-3.5,3.7l0,0
			c0,2,1.6,3.7,3.5,3.7C317.9,206.9,319.4,205.2,319.4,203.2z"/>
		<path class="st6" d="M322.6,204.1v-5.3h0.8v5c0,1.8,1,2.9,2.8,2.9c1.7,0,3-1.3,3-3v-4.9h0.8v8.5h-0.8v-1.6c-0.6,1-1.6,1.8-3.1,1.8
			C323.9,207.6,322.6,206.2,322.6,204.1z"/>
		<path class="st6" d="M332.9,208.8l0.5-0.7c1.1,0.8,2.2,1.2,3.5,1.2c1.9,0,3.4-1.1,3.4-3.4v-1.2c-0.7,1.1-1.9,2-3.6,2
			c-2,0-4.1-1.6-4.1-4.1l0,0c0-2.5,2-4.1,4.1-4.1c1.7,0,2.9,1,3.6,1.9v-1.7h0.8v7.2c0,1.2-0.4,2.2-1.1,2.9c-0.7,0.7-1.8,1.2-3.1,1.2
			C335.5,210.1,334.1,209.6,332.9,208.8z M340.3,202.7L340.3,202.7c0-2-1.8-3.2-3.6-3.2s-3.4,1.2-3.4,3.2l0,0c0,1.9,1.6,3.2,3.4,3.2
			C338.6,205.9,340.3,204.7,340.3,202.7z"/>
		<path class="st6" d="M344.2,195.1h0.8v5.3c0.6-1,1.6-1.8,3.1-1.8c2.2,0,3.5,1.4,3.5,3.5v5.3h-0.8v-5c0-1.8-1-2.9-2.8-2.9
			c-1.7,0-3,1.3-3,3v4.9h-0.8V195.1z"/>
		<path class="st6" d="M354.7,195.1h0.8v12.2h-0.8V195.1z"/>
		<path class="st6" d="M358,209.8l0.2-0.7c0.5,0.2,0.8,0.4,1.4,0.4c0.8,0,1.4-0.5,2.2-2l-4.1-8.5h1l3.6,7.7l3.1-7.7h1l-3.7,8.9
			c-0.7,1.8-1.7,2.4-2.9,2.4C359.1,210.1,358.6,210,358,209.8z"/>
		<path class="st6" d="M377.1,196.4H373v-0.8h9.1v0.8h-4.1v10.9h-0.8v-10.9H377.1z"/>
		<path class="st6" d="M384.2,195.1h0.8v5.3c0.6-1,1.6-1.8,3.1-1.8c2.2,0,3.5,1.4,3.5,3.5v5.3h-0.8v-5c0-1.8-1-2.9-2.8-2.9
			c-1.7,0-3,1.3-3,3v4.9h-0.8V195.1z"/>
		<path class="st6" d="M393.9,203.2L393.9,203.2c0-2.5,1.8-4.6,4.1-4.6c2.4,0,4,1.9,4,4.4c0,0.1,0,0.2,0,0.4h-7.1
			c0.1,2.2,1.7,3.4,3.4,3.4c1.3,0,2.3-0.6,3-1.3l0.6,0.5c-0.8,1-1.9,1.6-3.6,1.6C395.8,207.6,393.9,205.8,393.9,203.2z M401,202.7
			c-0.1-1.7-1.1-3.4-3.1-3.4c-1.7,0-3,1.4-3.1,3.4H401z"/>
		<path class="st6" d="M409.4,195.1h0.8v12.2h-0.8V195.1z"/>
		<path class="st6" d="M412.9,203.2L412.9,203.2c0-2.5,1.8-4.6,4.1-4.6c2.4,0,4,1.9,4,4.4c0,0.1,0,0.2,0,0.4h-7.1
			c0.1,2.2,1.7,3.4,3.4,3.4c1.3,0,2.3-0.6,3-1.3l0.6,0.5c-0.8,1-1.9,1.6-3.6,1.6C414.9,207.6,412.9,205.8,412.9,203.2z M420.1,202.7
			c-0.1-1.7-1.1-3.4-3.1-3.4c-1.7,0-3,1.4-3.1,3.4H420.1z"/>
		<path class="st6" d="M423.3,198.8h0.8v1.6c0.6-1,1.6-1.8,3.1-1.8c2.2,0,3.5,1.4,3.5,3.5v5.3h-0.8v-5c0-1.8-1-2.9-2.8-2.9
			c-1.7,0-3,1.3-3,3v4.9h-0.8V198.8z"/>
		<path class="st6" d="M433.4,208.8l0.5-0.7c1.1,0.8,2.2,1.2,3.5,1.2c1.9,0,3.4-1.1,3.4-3.4v-1.2c-0.7,1.1-1.9,2-3.6,2
			c-2,0-4.1-1.6-4.1-4.1l0,0c0-2.5,2-4.1,4.1-4.1c1.7,0,2.9,1,3.6,1.9v-1.7h0.8v7.2c0,1.2-0.4,2.2-1.1,2.9c-0.7,0.7-1.8,1.2-3.1,1.2
			C435.9,210.1,434.6,209.6,433.4,208.8z M440.8,202.7L440.8,202.7c0-2-1.8-3.2-3.6-3.2c-1.8,0-3.4,1.2-3.4,3.2l0,0
			c0,1.9,1.6,3.2,3.4,3.2C439,205.9,440.8,204.7,440.8,202.7z"/>
		<path class="st6" d="M445.1,205.2v-5.6h-1.2v-0.7h1.2v-2.8h0.8v2.8h3v0.7h-3v5.5c0,1.2,0.7,1.7,1.7,1.7c0.4,0,0.7-0.1,1.3-0.4v0.7
			c-0.5,0.2-0.8,0.4-1.4,0.4C446.2,207.6,445.1,206.9,445.1,205.2z"/>
		<path class="st6" d="M451.4,195.1h0.8v5.3c0.6-1,1.6-1.8,3.1-1.8c2.2,0,3.5,1.4,3.5,3.5v5.3H458v-5c0-1.8-1-2.9-2.8-2.9
			c-1.7,0-3,1.3-3,3v4.9h-0.8V195.1z"/>
		<path class="st6" d="M299.5,223.3L299.5,223.3c0-2.4,1.9-4.6,4.4-4.6c2.5,0,4.4,2,4.4,4.4l0,0c0,2.4-1.9,4.4-4.4,4.4
			C301.4,227.8,299.5,225.7,299.5,223.3z M307.4,223.3L307.4,223.3c0-2.2-1.6-3.7-3.5-3.7c-2,0-3.5,1.7-3.5,3.7l0,0
			c0,2,1.6,3.7,3.5,3.7C305.9,227,307.4,225.4,307.4,223.3z"/>
		<path class="st6" d="M311.3,219.7h-1.2V219h1.2v-0.8c0-1,0.2-1.8,0.7-2.3c0.5-0.5,1.1-0.7,1.8-0.7c0.5,0,0.8,0.1,1.3,0.2v0.7
			c-0.5-0.1-0.8-0.2-1.3-0.2c-1.2,0-1.7,0.7-1.7,2.2v0.8h3v0.7h-3v7.8h-0.8V219.7z"/>
		<path class="st6" d="M321.3,225.1L321.3,225.1c0-1.8,1.6-2.9,3.7-2.9c1.2,0,2,0.1,2.9,0.4v-0.4c0-1.7-1.1-2.6-2.9-2.6
			c-1.1,0-1.9,0.2-2.6,0.7l-0.4-0.7c1-0.5,1.9-0.7,3-0.7c1.2,0,2,0.4,2.8,1c0.6,0.6,0.8,1.3,0.8,2.4v5.4h-0.8v-1.6
			c-0.6,0.8-1.7,1.7-3.2,1.7S321.3,226.8,321.3,225.1z M327.9,224.4v-1c-0.7-0.2-1.7-0.4-2.9-0.4c-1.8,0-2.9,0.8-2.9,2l0,0
			c0,1.2,1.2,1.9,2.5,1.9C326.3,227,327.9,226,327.9,224.4z"/>
		<path class="st6" d="M336.8,215.8h8.3v0.8h-7.4v4.8h6.6v0.8h-6.6v5.3h-0.8V215.8z"/>
		<path class="st6" d="M346.9,223.3L346.9,223.3c0-2.4,1.9-4.6,4.4-4.6s4.4,2,4.4,4.4l0,0c0,2.4-1.9,4.4-4.4,4.4
			C348.7,227.8,346.9,225.7,346.9,223.3z M354.8,223.3L354.8,223.3c0-2.2-1.6-3.7-3.5-3.7c-2,0-3.5,1.7-3.5,3.7l0,0
			c0,2,1.6,3.7,3.5,3.7C353.3,227,354.8,225.4,354.8,223.3z"/>
		<path class="st6" d="M357.5,223.3L357.5,223.3c0-2.4,1.9-4.6,4.4-4.6s4.4,2,4.4,4.4l0,0c0,2.4-1.9,4.4-4.4,4.4
			C359.5,227.8,357.5,225.7,357.5,223.3z M365.5,223.3L365.5,223.3c0-2.2-1.6-3.7-3.5-3.7c-2,0-3.5,1.7-3.5,3.7l0,0
			c0,2,1.6,3.7,3.5,3.7C364,227,365.5,225.4,365.5,223.3z"/>
		<path class="st6" d="M369.4,225.4v-5.6h-1.2V219h1.2v-2.8h0.8v2.8h3v0.7h-3v5.5c0,1.2,0.7,1.7,1.7,1.7c0.5,0,0.7-0.1,1.3-0.4v0.7
			c-0.5,0.2-0.8,0.4-1.4,0.4C370.5,227.8,369.4,227,369.4,225.4z"/>
		<path class="st6" d="M376.5,225.7v1.8h-0.8v-12.2h0.8v5.6c0.7-1.1,1.8-2.2,3.5-2.2c2,0,4.2,1.7,4.2,4.4l0,0c0,2.8-2.2,4.4-4.2,4.4
			C378.3,227.8,377.2,226.8,376.5,225.7z M383.2,223.3L383.2,223.3c0-2.3-1.6-3.7-3.4-3.7c-1.8,0-3.5,1.4-3.5,3.7l0,0
			c0,2.2,1.7,3.7,3.5,3.7C381.8,226.9,383.2,225.6,383.2,223.3z"/>
		<path class="st6" d="M386,225.1L386,225.1c0-1.8,1.6-2.9,3.7-2.9c1.2,0,2,0.1,2.9,0.4v-0.4c0-1.7-1.1-2.6-2.9-2.6
			c-1.1,0-1.9,0.2-2.6,0.7l-0.4-0.7c1-0.5,1.9-0.7,3-0.7c1.2,0,2,0.4,2.8,1c0.6,0.6,0.8,1.3,0.8,2.4v5.4h-0.8v-1.6
			c-0.6,0.8-1.7,1.7-3.2,1.7C387.8,227.8,386,226.8,386,225.1z M392.6,224.4v-1c-0.7-0.2-1.7-0.4-2.9-0.4c-1.8,0-2.9,0.8-2.9,2l0,0
			c0,1.2,1.2,1.9,2.5,1.9C391.1,227,392.6,226,392.6,224.4z"/>
		<path class="st6" d="M396.5,215.3h0.8v12.2h-0.8V215.3z"/>
		<path class="st6" d="M405.8,215.8h8.3v0.8h-7.4v4.8h6.6v0.8h-6.6v5.3h-0.8L405.8,215.8L405.8,215.8z"/>
		<path class="st6" d="M416.6,215.6h1.1v1.1h-1.1V215.6z M416.7,219h0.8v8.5h-0.8V219z"/>
		<path class="st6" d="M420.2,223.3L420.2,223.3c0-2.5,1.8-4.6,4.1-4.6c2.4,0,4,1.9,4,4.4c0,0.1,0,0.2,0,0.4h-7.1
			c0.1,2.2,1.7,3.4,3.4,3.4c1.3,0,2.3-0.6,3-1.3l0.6,0.5c-0.8,1-1.9,1.6-3.6,1.6C422.2,227.8,420.2,226,420.2,223.3z M427.4,222.8
			c-0.1-1.7-1.1-3.4-3.1-3.4c-1.7,0-3,1.4-3.1,3.4H427.4z"/>
		<path class="st6" d="M430.7,215.3h0.8v12.2h-0.8V215.3z"/>
		<path class="st6" d="M434.2,223.3L434.2,223.3c0-2.9,2.2-4.6,4.2-4.6c1.7,0,2.9,1,3.5,2v-5.5h0.8v12.2h-0.8v-1.9
			c-0.7,1.1-1.8,2.2-3.5,2.2C436.4,227.8,434.2,226.1,434.2,223.3z M442,223.3L442,223.3c0-2.3-1.7-3.7-3.5-3.7
			c-1.9,0-3.4,1.3-3.4,3.7l0,0c0,2.3,1.6,3.7,3.4,3.7C440.2,226.9,442,225.5,442,223.3z"/>
	</g>
</g>
</svg>
