<?xml version="1.0" encoding="utf-8"?>
<!-- Generator: Adobe Illustrator 23.1.0, SVG Export Plug-In . SVG Version: 6.00 Build 0)  -->
<svg version="1.1" id="Layer_1" xmlns="http://www.w3.org/2000/svg" xmlns:xlink="http://www.w3.org/1999/xlink" x="0px" y="0px"
	 width="500px" height="500px" viewBox="0 0 500 500" style="enable-background:new 0 0 500 500;" xml:space="preserve">
<style type="text/css">
	.st0{enable-background:new    ;}
	.st1{fill:#B5B5B5;}
	.st2{fill:none;stroke:#FFFFFF;stroke-width:0.5;stroke-miterlimit:10;}
	.st3{fill:none;stroke:#FFFFFF;stroke-width:0.75;stroke-miterlimit:10;}
	.st4{fill:#FFFFFF;}
	.st5{fill:#A4DCE8;}
	.st6{fill:none;}
</style>
<g>
	<g class="st0">
		<path class="st1" d="M193.8,114.6l1.1-1.2c2.5,2.3,4.7,3.3,8,3.3c3.4,0,5.7-1.9,5.7-4.4v-0.1c0-2.4-1.2-3.7-6.3-4.8
			c-5.4-1.1-7.6-2.9-7.6-6.3V101c0-3.3,3-5.9,7.2-5.9c3.3,0,5.4,0.9,7.7,2.7l-1.1,1.3c-2.1-1.8-4.2-2.5-6.7-2.5
			c-3.3,0-5.5,1.9-5.5,4.2v0.1c0,2.4,1.2,3.8,6.5,4.9c5.2,1.1,7.4,2.9,7.4,6.2v0.1c0,3.6-3.1,6.1-7.4,6.1
			C199.2,118.2,196.5,117,193.8,114.6z"/>
		<path class="st1" d="M214.7,106.8L214.7,106.8c0-6.4,4.7-11.6,11.2-11.6c4,0,6.4,1.5,8.7,3.6l-1.2,1.2c-2-1.9-4.2-3.3-7.6-3.3
			c-5.4,0-9.4,4.4-9.4,10v0.1c0,5.7,4.1,10.1,9.5,10.1c3.2,0,5.4-1.2,7.7-3.5l1.1,1.1c-2.4,2.3-4.9,3.9-8.9,3.9
			C219.5,118.3,214.7,113.2,214.7,106.8z"/>
		<path class="st1" d="M247.8,95.3h1.6l10.4,22.6H258l-2.8-6.3H242l-2.8,6.3h-1.7L247.8,95.3z M254.5,110.1l-5.9-13l-5.9,13H254.5z"
			/>
		<path class="st1" d="M264.6,95.5h1.7v20.9h13.2v1.5h-14.8V95.5H264.6z"/>
		<path class="st1" d="M284.4,95.5h15.9V97H286v8.8h12.8v1.5H286v9h14.4v1.5h-16.1L284.4,95.5L284.4,95.5z"/>
	</g>
	<line class="st2" x1="171.4" y1="105" x2="46" y2="105"/>
	<line class="st2" x1="316.5" y1="105" x2="441.7" y2="105"/>
</g>
<line class="st2" x1="46" y1="410" x2="441.7" y2="410"/>
<g>
	<g>
		<g>
			<polyline class="st3" points="249.1,291.8 249.1,345.8 257,345.8 			"/>
			<g>
				<circle class="st4" cx="256.9" cy="345.8" r="2.1"/>
			</g>
		</g>
	</g>
	<path class="st5" d="M270.5,341.2l-2.2,0.7l-0.2-0.7l2.6-0.9h0.6v11.3h-0.8V341.2L270.5,341.2z"/>
	<path class="st5" d="M284.1,352.9c0.7-0.4,0.9-0.7,0.9-1.3h-0.4v-1.4h1.1v1.2c0,1-0.4,1.5-1.3,1.9L284.1,352.9z"/>
	<path class="st5" d="M287.1,346.3L287.1,346.3c0-3.1,1.8-5.8,4.7-5.8c2.9,0,4.6,2.7,4.6,5.8l0,0c0,3.1-1.8,5.8-4.7,5.8
		C288.9,352.1,287.1,349.4,287.1,346.3z M295.5,346.3L295.5,346.3c0-2.6-1.5-5.1-3.8-5.1s-3.8,2.4-3.8,5l0,0c0,2.6,1.5,5,3.8,5
		S295.5,348.9,295.5,346.3z"/>
	<path class="st5" d="M274,346.3L274,346.3c0-3.1,1.8-5.8,4.7-5.8c2.9,0,4.6,2.7,4.6,5.8l0,0c0,3.1-1.8,5.8-4.7,5.8
		C275.8,352.1,274,349.4,274,346.3z M282.4,346.3L282.4,346.3c0-2.6-1.5-5.1-3.8-5.1s-3.8,2.4-3.8,5l0,0c0,2.6,1.5,5,3.8,5
		S282.4,348.9,282.4,346.3z"/>
	<path class="st5" d="M298.5,346.3L298.5,346.3c0-3.1,1.8-5.8,4.7-5.8c2.9,0,4.6,2.7,4.6,5.8l0,0c0,3.1-1.8,5.8-4.7,5.8
		C300.3,352.1,298.5,349.4,298.5,346.3z M306.9,346.3L306.9,346.3c0-2.6-1.5-5.1-3.8-5.1s-3.8,2.4-3.8,5l0,0c0,2.6,1.5,5,3.8,5
		S306.9,348.9,306.9,346.3z"/>
	<path class="st5" d="M309.8,346.3L309.8,346.3c0-3.1,1.8-5.8,4.7-5.8c2.9,0,4.6,2.7,4.6,5.8l0,0c0,3.1-1.8,5.8-4.7,5.8
		C311.6,352.1,309.8,349.4,309.8,346.3z M318.3,346.3L318.3,346.3c0-2.6-1.5-5.1-3.8-5.1s-3.8,2.4-3.8,5l0,0c0,2.6,1.5,5,3.8,5
		S318.3,348.9,318.3,346.3z"/>
	<path class="st5" d="M371.7,340.9h0.8v8.8l5.1-5.2h1L375,348l3.7,4.5h-1l-3.2-4l-2,2v2h-0.8V340.9L371.7,340.9z"/>
	<path class="st5" d="M380.7,344.4h0.8v1.5c0.5-0.8,1.3-1.6,2.7-1.6c1.4,0,2.3,0.8,2.8,1.8c0.5-0.9,1.4-1.8,2.9-1.8
		c1.9,0,3.1,1.4,3.1,3.4v4.9h-0.8v-4.9c0-1.8-0.9-2.8-2.4-2.8c-1.4,0-2.6,1.1-2.6,2.9v4.8h-0.8v-4.9c0-1.7-0.9-2.7-2.4-2.7
		s-2.6,1.3-2.6,2.9v4.7h-0.8L380.7,344.4L380.7,344.4z"/>
	<g>
		<title>Asset 3</title>
		<g>
			<g id="Layer_1-2_2_">
				<rect x="148.6" y="291.8" class="st6" width="100" height="33"/>
				<line class="st3" x1="149.1" y1="291.8" x2="149.1" y2="324.8"/>
				<line class="st2" x1="169.1" y1="303.8" x2="169.1" y2="324.8"/>
				<line class="st2" x1="159.1" y1="303.8" x2="159.1" y2="324.8"/>
				<line class="st2" x1="189.1" y1="303.8" x2="189.1" y2="324.8"/>
				<line class="st2" x1="179.1" y1="303.8" x2="179.1" y2="324.8"/>
				<line class="st2" x1="199.1" y1="303.8" x2="199.1" y2="324.8"/>
				<line class="st2" x1="209.1" y1="303.8" x2="209.1" y2="324.8"/>
				<line class="st2" x1="229.1" y1="303.8" x2="229.1" y2="324.8"/>
				<line class="st2" x1="219.1" y1="303.8" x2="219.1" y2="324.8"/>
				<line class="st2" x1="239" y1="303.8" x2="239" y2="324.8"/>
			</g>
		</g>
	</g>
	<path class="st5" d="M323.2,344.2h0.8v1.5c0.5-0.8,1.3-1.6,2.7-1.6c1.4,0,2.3,0.8,2.8,1.8c0.5-0.9,1.4-1.8,2.9-1.8
		c1.9,0,3.1,1.4,3.1,3.4v4.9h-0.8v-4.9c0-1.8-0.9-2.8-2.4-2.8c-1.4,0-2.6,1.1-2.6,2.9v4.8H329v-4.9c0-1.7-0.9-2.7-2.4-2.7
		s-2.6,1.3-2.6,2.9v4.7h-0.8V344.2L323.2,344.2z"/>
	<path class="st5" d="M345,340.9h0.9l-4.3,11.5h-0.9L345,340.9z"/>
	<path class="st5" d="M354.6,341.9l-2.2,0.7l-0.2-0.7l2.6-0.9h0.6v11.3h-0.8V341.9L354.6,341.9z"/>
	<path class="st5" d="M358.7,346.7L358.7,346.7c0-3.1,1.8-5.8,4.7-5.8c2.9,0,4.6,2.7,4.6,5.8l0,0c0,3.1-1.8,5.8-4.7,5.8
		C360.5,352.4,358.7,349.8,358.7,346.7z M367.1,346.7L367.1,346.7c0-2.6-1.5-5.1-3.8-5.1s-3.8,2.4-3.8,5l0,0c0,2.6,1.5,5,3.8,5
		S367.1,349.3,367.1,346.7z"/>
</g>
<rect x="173.3" y="201.5" class="st4" width="0.9" height="0.9"/>
<g>
	<g>
		<rect x="129.3" y="201.8" class="st5" width="29.2" height="0.5"/>
		<g>
			<polygon class="st5" points="155.2,198 154.5,198.7 158.1,202.1 154.5,205.4 155.2,206.1 159.6,202.1 			"/>
		</g>
	</g>
</g>
<g>
	<g>
		<rect x="261.9" y="201.3" class="st5" width="30.6" height="0.5"/>
		<g>
			<polygon class="st5" points="265.2,205.7 265.9,204.9 262.3,201.6 265.9,198.2 265.2,197.5 260.8,201.6 			"/>
		</g>
	</g>
</g>
<g class="st0">
	<path class="st5" d="M83.9,196.6l-1.9,0.6l-0.2-0.6l2.2-0.8h0.6v9.9h-0.7C83.9,205.8,83.9,196.6,83.9,196.6z"/>
	<path class="st5" d="M91.6,198.6h0.7v1.6c0.6-0.9,1.5-1.8,2.9-1.8c1.7,0,3.5,1.4,3.5,3.7l0,0c0,2.3-1.8,3.7-3.5,3.7
		c-1.4,0-2.4-0.8-2.9-1.7v3.8h-0.7V198.6z M97.9,202.2L97.9,202.2c0-1.9-1.3-3.1-2.8-3.1s-2.9,1.2-2.9,3.1l0,0
		c0,1.8,1.4,3.1,2.9,3.1C96.7,205.3,97.9,204.1,97.9,202.2z"/>
	<path class="st5" d="M100.8,195.8h0.9v0.9h-0.9V195.8z M100.9,198.6h0.7v7.1h-0.7V198.6z"/>
	<path class="st5" d="M107,202.6l-2.5,3.2h-0.8l2.9-3.6l-2.8-3.5h0.9l2.4,3l2.4-3h0.8l-2.8,3.5l2.9,3.7h-0.9L107,202.6z"/>
	<path class="st5" d="M111.3,202.2L111.3,202.2c0-2.1,1.5-3.8,3.4-3.8c2,0,3.3,1.6,3.3,3.7c0,0.1,0,0.2,0,0.3h-6
		c0.1,1.8,1.4,2.8,2.8,2.8c1.1,0,1.9-0.5,2.5-1.1l0.5,0.4c-0.7,0.8-1.6,1.3-3,1.3C112.9,205.9,111.3,204.4,111.3,202.2z
		 M117.2,201.8c-0.1-1.4-0.9-2.8-2.6-2.8c-1.4,0-2.5,1.2-2.6,2.8H117.2z"/>
	<path class="st5" d="M120.1,195.5h0.7v10.2h-0.7V195.5z"/>
</g>
<path class="st4" d="M185.6,199.6h8.2v0.9h-8.2V199.6z M185.6,203.6h8.2v0.9h-8.2V203.6z"/>
<g class="st0">
	<path class="st4" d="M203.6,197.1l-2.2,0.7l-0.2-0.7l2.6-0.9h0.6v11.3h-0.8L203.6,197.1L203.6,197.1z"/>
	<path class="st4" d="M207.1,202L207.1,202c0-3.1,1.8-5.8,4.7-5.8s4.6,2.7,4.6,5.8l0,0c0,3.1-1.8,5.8-4.7,5.8
		C208.9,207.8,207.1,205.1,207.1,202z M215.5,202L215.5,202c0-2.6-1.5-5.1-3.8-5.1s-3.8,2.4-3.8,5l0,0c0,2.6,1.5,5,3.8,5
		S215.5,204.6,215.5,202z"/>
	<path class="st4" d="M218.5,202L218.5,202c0-3.1,1.8-5.8,4.7-5.8c2.8,0,4.6,2.7,4.6,5.8l0,0c0,3.1-1.8,5.8-4.7,5.8
		S218.5,205.1,218.5,202z M226.9,202L226.9,202c0-2.6-1.5-5.1-3.8-5.1s-3.8,2.4-3.8,5l0,0c0,2.6,1.5,5,3.8,5S226.9,204.6,226.9,202z
		"/>
	<path class="st4" d="M232,199.4h0.8v1.5c0.5-0.8,1.3-1.6,2.7-1.6s2.3,0.8,2.8,1.8c0.5-0.9,1.4-1.8,2.9-1.8c1.9,0,3.1,1.4,3.1,3.4
		v4.9h-0.8v-4.9c0-1.8-0.9-2.8-2.4-2.8c-1.4,0-2.6,1.1-2.6,2.9v4.8h-0.8v-4.9c0-1.7-0.9-2.7-2.4-2.7s-2.6,1.3-2.6,2.9v4.7H232V199.4
		L232,199.4z"/>
</g>
<g class="st0">
	<path class="st5" d="M311.6,188.6h4.1c1.2,0,2.2,0.4,2.8,1c0.5,0.5,0.7,1.1,0.7,1.8v0c0,1.6-1.2,2.6-2.9,2.8l3.2,4.2h-0.9l-3.1-4.1
		h-3.2v4.1h-0.7V188.6z M315.6,193.7c1.6,0,2.9-0.8,2.9-2.2v0c0-1.3-1-2.1-2.8-2.1h-3.3v4.4H315.6z"/>
	<path class="st5" d="M320.9,194.9L320.9,194.9c0-2,1.6-3.8,3.7-3.8c2.1,0,3.7,1.7,3.7,3.7v0c0,2-1.6,3.7-3.7,3.7
		C322.5,198.6,320.9,196.9,320.9,194.9z M327.5,194.9L327.5,194.9c0-1.8-1.3-3.1-2.9-3.1c-1.7,0-2.9,1.4-2.9,3.1v0
		c0,1.7,1.3,3.1,2.9,3.1C326.3,198,327.5,196.6,327.5,194.9z"/>
	<path class="st5" d="M330.2,195.7v-4.4h0.7v4.2c0,1.5,0.8,2.4,2.3,2.4c1.4,0,2.5-1.1,2.5-2.5v-4.1h0.7v7.1h-0.7v-1.3
		c-0.5,0.8-1.3,1.5-2.6,1.5C331.3,198.6,330.2,197.4,330.2,195.7z"/>
	<path class="st5" d="M338.8,199.6l0.4-0.6c0.9,0.7,1.8,1,2.9,1c1.6,0,2.8-0.9,2.8-2.8v-1c-0.6,0.9-1.6,1.7-3,1.7
		c-1.7,0-3.4-1.3-3.4-3.4v0c0-2.1,1.7-3.4,3.4-3.4c1.4,0,2.4,0.8,3,1.6v-1.4h0.7v6c0,1-0.3,1.8-0.9,2.4c-0.6,0.6-1.5,1-2.6,1
		C340.9,200.7,339.8,200.3,338.8,199.6z M344.9,194.5L344.9,194.5c0-1.7-1.5-2.7-3-2.7c-1.5,0-2.8,1-2.8,2.7v0
		c0,1.6,1.3,2.7,2.8,2.7C343.5,197.2,344.9,196.2,344.9,194.5z"/>
	<path class="st5" d="M348.2,188.2h0.7v4.4c0.5-0.8,1.3-1.5,2.6-1.5c1.8,0,2.9,1.2,2.9,2.9v4.4h-0.7v-4.2c0-1.5-0.8-2.4-2.3-2.4
		c-1.4,0-2.5,1.1-2.5,2.5v4.1h-0.7V188.2z"/>
	<path class="st5" d="M356.9,188.2h0.7v10.2h-0.7V188.2z"/>
	<path class="st5" d="M359.7,200.4l0.2-0.6c0.4,0.2,0.7,0.3,1.2,0.3c0.7,0,1.2-0.4,1.8-1.7l-3.4-7.1h0.8l3,6.4l2.6-6.4h0.8l-3.1,7.4
		c-0.6,1.5-1.4,2-2.4,2C360.6,200.7,360.2,200.6,359.7,200.4z"/>
	<path class="st5" d="M375.6,189.3h-3.4v-0.7h7.6v0.7h-3.4v9.1h-0.7V189.3z"/>
	<path class="st5" d="M381.5,188.2h0.7v4.4c0.5-0.8,1.3-1.5,2.6-1.5c1.8,0,2.9,1.2,2.9,2.9v4.4h-0.7v-4.2c0-1.5-0.8-2.4-2.3-2.4
		c-1.4,0-2.5,1.1-2.5,2.5v4.1h-0.7V188.2z"/>
	<path class="st5" d="M389.6,194.9L389.6,194.9c0-2.1,1.5-3.8,3.4-3.8c2,0,3.3,1.6,3.3,3.7c0,0.1,0,0.2,0,0.3h-5.9
		c0.1,1.8,1.4,2.8,2.8,2.8c1.1,0,1.9-0.5,2.5-1.1l0.5,0.4c-0.7,0.8-1.6,1.3-3,1.3C391.2,198.6,389.6,197.1,389.6,194.9z
		 M395.5,194.5c-0.1-1.4-0.9-2.8-2.6-2.8c-1.4,0-2.5,1.2-2.6,2.8H395.5z"/>
	<path class="st5" d="M402.5,188.2h0.7v10.2h-0.7V188.2z"/>
	<path class="st5" d="M405.4,194.9L405.4,194.9c0-2.1,1.5-3.8,3.4-3.8c2,0,3.3,1.6,3.3,3.7c0,0.1,0,0.2,0,0.3h-5.9
		c0.1,1.8,1.4,2.8,2.8,2.8c1.1,0,1.9-0.5,2.5-1.1l0.5,0.4c-0.7,0.8-1.6,1.3-3,1.3C407.1,198.6,405.4,197.1,405.4,194.9z
		 M411.4,194.5c-0.1-1.4-0.9-2.8-2.6-2.8c-1.4,0-2.5,1.2-2.6,2.8H411.4z"/>
	<path class="st5" d="M414.1,191.3h0.7v1.3c0.5-0.8,1.3-1.5,2.6-1.5c1.8,0,2.9,1.2,2.9,2.9v4.4h-0.7v-4.2c0-1.5-0.8-2.4-2.3-2.4
		c-1.4,0-2.5,1.1-2.5,2.5v4.1h-0.7V191.3z"/>
	<path class="st5" d="M422.5,199.6l0.4-0.6c0.9,0.7,1.8,1,2.9,1c1.6,0,2.8-0.9,2.8-2.8v-1c-0.6,0.9-1.6,1.7-3,1.7
		c-1.7,0-3.4-1.3-3.4-3.4v0c0-2.1,1.7-3.4,3.4-3.4c1.4,0,2.4,0.8,3,1.6v-1.4h0.7v6c0,1-0.3,1.8-0.9,2.4c-0.6,0.6-1.5,1-2.6,1
		C424.6,200.7,423.5,200.3,422.5,199.6z M428.7,194.5L428.7,194.5c0-1.7-1.5-2.7-3-2.7c-1.5,0-2.8,1-2.8,2.7v0
		c0,1.6,1.3,2.7,2.8,2.7C427.2,197.2,428.7,196.2,428.7,194.5z"/>
	<path class="st5" d="M432.3,196.6v-4.7h-1v-0.6h1V189h0.7v2.3h2.5v0.6H433v4.6c0,1,0.6,1.4,1.4,1.4c0.3,0,0.6-0.1,1.1-0.3v0.6
		c-0.4,0.2-0.7,0.3-1.2,0.3C433.2,198.6,432.3,198,432.3,196.6z"/>
	<path class="st5" d="M437.5,188.2h0.7v4.4c0.5-0.8,1.3-1.5,2.6-1.5c1.8,0,2.9,1.2,2.9,2.9v4.4H443v-4.2c0-1.5-0.8-2.4-2.3-2.4
		c-1.4,0-2.5,1.1-2.5,2.5v4.1h-0.7V188.2z"/>
	<path class="st5" d="M310.9,211.7L310.9,211.7c0-2,1.6-3.8,3.7-3.8c2.1,0,3.7,1.7,3.7,3.7v0c0,2-1.6,3.7-3.7,3.7
		C312.5,215.4,310.9,213.7,310.9,211.7z M317.5,211.7L317.5,211.7c0-1.8-1.3-3.1-2.9-3.1c-1.7,0-2.9,1.4-2.9,3.1v0
		c0,1.7,1.3,3.1,2.9,3.1C316.3,214.8,317.5,213.4,317.5,211.7z"/>
	<path class="st5" d="M320.8,208.7h-1v-0.6h1v-0.7c0-0.8,0.2-1.5,0.6-1.9c0.4-0.4,0.9-0.6,1.5-0.6c0.4,0,0.7,0.1,1.1,0.2v0.6
		c-0.4-0.1-0.7-0.2-1.1-0.2c-1,0-1.4,0.6-1.4,1.8v0.7h2.5v0.6h-2.5v6.5h-0.7V208.7z"/>
	<path class="st5" d="M329.1,213.2L329.1,213.2c0-1.5,1.3-2.4,3.1-2.4c1,0,1.7,0.1,2.4,0.3v-0.3c0-1.4-0.9-2.2-2.4-2.2
		c-0.9,0-1.6,0.2-2.2,0.6l-0.3-0.6c0.8-0.4,1.6-0.6,2.5-0.6c1,0,1.7,0.3,2.3,0.8c0.5,0.5,0.7,1.1,0.7,2v4.5h-0.7V214
		c-0.5,0.7-1.4,1.4-2.7,1.4C330.5,215.4,329.1,214.6,329.1,213.2z M334.6,212.6v-0.8c-0.6-0.2-1.4-0.3-2.4-0.3
		c-1.5,0-2.4,0.7-2.4,1.7v0c0,1,1,1.6,2.1,1.6C333.3,214.8,334.6,213.9,334.6,212.6z"/>
	<path class="st5" d="M342,205.4h6.9v0.7h-6.2v4h5.5v0.7h-5.5v4.4H342V205.4z"/>
	<path class="st5" d="M350.4,211.7L350.4,211.7c0-2,1.6-3.8,3.7-3.8c2.1,0,3.7,1.7,3.7,3.7v0c0,2-1.6,3.7-3.7,3.7
		C351.9,215.4,350.4,213.7,350.4,211.7z M357,211.7L357,211.7c0-1.8-1.3-3.1-2.9-3.1c-1.7,0-2.9,1.4-2.9,3.1v0
		c0,1.7,1.3,3.1,2.9,3.1C355.8,214.8,357,213.4,357,211.7z"/>
	<path class="st5" d="M359.3,211.7L359.3,211.7c0-2,1.6-3.8,3.7-3.8c2.1,0,3.7,1.7,3.7,3.7v0c0,2-1.6,3.7-3.7,3.7
		C360.9,215.4,359.3,213.7,359.3,211.7z M365.9,211.7L365.9,211.7c0-1.8-1.3-3.1-2.9-3.1c-1.7,0-2.9,1.4-2.9,3.1v0
		c0,1.7,1.3,3.1,2.9,3.1C364.7,214.8,365.9,213.4,365.9,211.7z"/>
	<path class="st5" d="M369.2,213.4v-4.7h-1v-0.6h1v-2.3h0.7v2.3h2.5v0.6h-2.5v4.6c0,1,0.6,1.4,1.4,1.4c0.4,0,0.6-0.1,1.1-0.3v0.6
		c-0.4,0.2-0.7,0.3-1.2,0.3C370.1,215.4,369.2,214.8,369.2,213.4z"/>
	<path class="st5" d="M375.1,213.7v1.5h-0.7V205h0.7v4.7c0.6-0.9,1.5-1.8,2.9-1.8c1.7,0,3.5,1.4,3.5,3.7v0c0,2.3-1.8,3.7-3.5,3.7
		C376.6,215.4,375.7,214.6,375.1,213.7z M380.7,211.7L380.7,211.7c0-1.9-1.3-3.1-2.8-3.1c-1.5,0-2.9,1.2-2.9,3.1v0
		c0,1.8,1.4,3.1,2.9,3.1C379.5,214.7,380.7,213.6,380.7,211.7z"/>
	<path class="st5" d="M383,213.2L383,213.2c0-1.5,1.3-2.4,3.1-2.4c1,0,1.7,0.1,2.4,0.3v-0.3c0-1.4-0.9-2.2-2.4-2.2
		c-0.9,0-1.6,0.2-2.2,0.6l-0.3-0.6c0.8-0.4,1.6-0.6,2.5-0.6c1,0,1.7,0.3,2.3,0.8c0.5,0.5,0.7,1.1,0.7,2v4.5h-0.7V214
		c-0.5,0.7-1.4,1.4-2.7,1.4C384.5,215.4,383,214.6,383,213.2z M388.5,212.6v-0.8c-0.6-0.2-1.4-0.3-2.4-0.3c-1.5,0-2.4,0.7-2.4,1.7v0
		c0,1,1,1.6,2.1,1.6C387.3,214.8,388.5,213.9,388.5,212.6z"/>
	<path class="st5" d="M391.8,205h0.7v10.2h-0.7V205z"/>
	<path class="st5" d="M399.5,205.4h6.9v0.7h-6.2v4h5.5v0.7h-5.5v4.4h-0.7V205.4z"/>
	<path class="st5" d="M408.5,205.3h0.9v0.9h-0.9V205.3z M408.6,208.1h0.7v7.1h-0.7V208.1z"/>
	<path class="st5" d="M411.5,211.7L411.5,211.7c0-2.1,1.5-3.8,3.4-3.8c2,0,3.3,1.6,3.3,3.7c0,0.1,0,0.2,0,0.3h-5.9
		c0.1,1.8,1.4,2.8,2.8,2.8c1.1,0,1.9-0.5,2.5-1.1l0.5,0.4c-0.7,0.8-1.6,1.3-3,1.3C413.2,215.4,411.5,213.9,411.5,211.7z
		 M417.5,211.3c-0.1-1.4-0.9-2.8-2.6-2.8c-1.4,0-2.5,1.2-2.6,2.8H417.5z"/>
	<path class="st5" d="M420.3,205h0.7v10.2h-0.7V205z"/>
	<path class="st5" d="M423.2,211.7L423.2,211.7c0-2.4,1.8-3.8,3.5-3.8c1.4,0,2.4,0.8,2.9,1.7V205h0.7v10.2h-0.7v-1.6
		c-0.6,0.9-1.5,1.8-2.9,1.8C425,215.4,423.2,214,423.2,211.7z M429.7,211.7L429.7,211.7c0-1.9-1.4-3.1-2.9-3.1
		c-1.6,0-2.8,1.1-2.8,3.1v0c0,1.9,1.3,3.1,2.8,3.1C428.2,214.7,429.7,213.5,429.7,211.7z"/>
</g>
</svg>
